0
SECTION
2
HEADER
9
$INSUNITS
70
4
9
$ACADVER
1
AC1014
9
$HANDSEED
5
FFFF
0
ENDSEC
0
SECTION
2
TABLES
0
TABLE
2
VPORT
5
8
100
AcDbSymbolTable
0
ENDTAB
0
TABLE
2
LTYPE
5
5
100
AcDbSymbolTable
0
LTYPE
5
14
100
AcDbSymbolTableRecord
100
AcDbLinetypeTableRecord
2
BYBLOCK
70
0
0
LTYPE
5
15
100
AcDbSymbolTableRecord
100
AcDbLinetypeTableRecord
2
BYLAYER
70
0
0
LTYPE
5
16
100
AcDbSymbolTableRecord
100
AcDbLinetypeTableRecord
2
DASHED
70
0
3
Dashed __ __ __ __ __ __ __ __ __ __ __ __ __ _
72
65
73
2
40
0.75
49
0.5
74
0
49
-0.25
74
0
0
ENDTAB
0
TABLE
2
LAYER
5
2
100
AcDbSymbolTable
70
2
0
LAYER
5
50
100
AcDbSymbolTableRecord
100
AcDbLayerTableRecord
2
0
70
0
62
7
6
CONTINUOUS
0
ENDTAB
0
TABLE
2
STYLE
5
3
100
AcDbSymbolTable
70
1
0
STYLE
5
11
100
AcDbSymbolTableRecord
100
AcDbTextStyleTableRecord
2
STANDARD
70
0
0
ENDTAB
0
TABLE
2
VIEW
5
6
100
AcDbSymbolTable
70
0
0
ENDTAB
0
TABLE
2
UCS
5
7
100
AcDbSymbolTable
70
0
0
ENDTAB
0
TABLE
2
APPID
5
9
100
AcDbSymbolTable
70
2
0
APPID
5
12
100
AcDbSymbolTableRecord
100
AcDbRegAppTableRecord
2
ACAD
70
0
0
ENDTAB
0
TABLE
2
DIMSTYLE
5
A
100
AcDbSymbolTable
70
1
0
ENDTAB
0
TABLE
2
BLOCK_RECORD
5
1
100
AcDbSymbolTable
70
1
0
BLOCK_RECORD
5
1F
100
AcDbSymbolTableRecord
100
AcDbBlockTableRecord
2
*MODEL_SPACE
0
BLOCK_RECORD
5
1B
100
AcDbSymbolTableRecord
100
AcDbBlockTableRecord
2
*PAPER_SPACE
0
ENDTAB
0
ENDSEC
0
SECTION
2
BLOCKS
0
BLOCK
5
20
100
AcDbEntity
100
AcDbBlockBegin
2
*MODEL_SPACE
0
ENDBLK
5
21
100
AcDbEntity
100
AcDbBlockEnd
0
BLOCK
5
1C
100
AcDbEntity
100
AcDbBlockBegin
2
*PAPER_SPACE
0
ENDBLK
5
1D
100
AcDbEntity
100
AcDbBlockEnd
0
ENDSEC
0
SECTION
2
ENTITIES
0
CIRCLE
5
100
100
AcDbEntity
8
0
100
AcDbCircle
10
-265.73160000000041
20
124.18875113487722
30
0
40
1.5000000000000002
210
0
220
0
230
1
0
CIRCLE
5
101
100
AcDbEntity
8
0
100
AcDbCircle
10
-278.63160000000045
20
111.28875113487722
30
0
40
1.5000000000000002
210
0
220
0
230
1
0
CIRCLE
5
102
100
AcDbEntity
8
0
100
AcDbCircle
10
-278.63160000000045
20
124.18875113487722
30
0
40
1.5000000000000011
210
0
220
0
230
1
0
CIRCLE
5
103
100
AcDbEntity
8
0
100
AcDbCircle
10
-265.73160000000041
20
111.28875113487722
30
0
40
1.5000000000000002
210
0
220
0
230
1
0
CIRCLE
5
104
100
AcDbEntity
8
0
100
AcDbCircle
10
-272.1816000000004
20
117.73875113487721
30
0
40
4.499999999999992
210
0
220
0
230
1
0
CIRCLE
5
105
100
AcDbEntity
8
0
100
AcDbCircle
10
-96.069200000002027
20
121.73875113487725
30
0
40
1
210
0
220
0
230
1
0
CIRCLE
5
106
100
AcDbEntity
8
0
100
AcDbCircle
10
-96.069200000002027
20
113.73875113487725
30
0
40
1
210
0
220
0
230
1
0
CIRCLE
5
107
100
AcDbEntity
8
0
100
AcDbCircle
10
-77.01920000000203
20
121.73875113487725
30
0
40
1
210
0
220
0
230
1
0
CIRCLE
5
108
100
AcDbEntity
8
0
100
AcDbCircle
10
-77.01920000000203
20
117.73875113487725
30
0
40
4
210
0
220
0
230
1
0
CIRCLE
5
109
100
AcDbEntity
8
0
100
AcDbCircle
10
-77.01920000000203
20
113.73875113487725
30
0
40
1
210
0
220
0
230
1
0
CIRCLE
5
110
100
AcDbEntity
8
0
100
AcDbCircle
10
-96.069200000002027
20
117.73875113487725
30
0
40
4
210
0
220
0
230
1
0
CIRCLE
5
111
100
AcDbEntity
8
0
100
AcDbCircle
10
-240.73160000000101
20
80.738751135038939
30
0
40
3.1750000000000127
210
0
220
0
230
1
0
CIRCLE
5
112
100
AcDbEntity
8
0
100
AcDbCircle
10
-240.73160000000118
20
87.03875113503895
30
0
40
1.2000000000000151
210
0
220
0
230
1
0
CIRCLE
5
113
100
AcDbEntity
8
0
100
AcDbCircle
10
-272.1816000000004
20
84.738751134877205
30
0
40
6.3500000000000103
210
0
220
0
230
1
0
CIRCLE
5
114
100
AcDbEntity
8
0
100
AcDbCircle
10
-230.73160000000044
20
131.23875113487719
30
0
40
3.0000000000000071
210
0
220
0
230
1
0
CIRCLE
5
115
100
AcDbEntity
8
0
100
AcDbCircle
10
-230.73160000000044
20
104.23875113487722
30
0
40
3.0000000000000071
210
0
220
0
230
1
0
CIRCLE
5
116
100
AcDbEntity
8
0
100
AcDbCircle
10
-220.73160000000169
20
80.738751135038939
30
0
40
3.1750000000000127
210
0
220
0
230
1
0
CIRCLE
5
117
100
AcDbEntity
8
0
100
AcDbCircle
10
-220.73160000000166
20
87.03875113503895
30
0
40
1.2000000000000151
210
0
220
0
230
1
0
CIRCLE
5
118
100
AcDbEntity
8
0
100
AcDbCircle
10
-180.73160000000044
20
104.23875113487725
30
0
40
3.0000000000000071
210
0
220
0
230
1
0
CIRCLE
5
119
100
AcDbEntity
8
0
100
AcDbCircle
10
-180.73160000000044
20
131.23875113487725
30
0
40
3.0000000000000071
210
0
220
0
230
1
0
CIRCLE
5
120
100
AcDbEntity
8
0
100
AcDbCircle
10
-180.73160000000044
20
87.038751135038922
30
0
40
1.2000000000000151
210
0
220
0
230
1
0
CIRCLE
5
121
100
AcDbEntity
8
0
100
AcDbCircle
10
-180.73160000000024
20
80.738751135038939
30
0
40
3.1750000000000127
210
0
220
0
230
1
0
CIRCLE
5
122
100
AcDbEntity
8
0
100
AcDbCircle
10
-96.069200000002027
20
80.738751135038939
30
0
40
3.1750000000000127
210
0
220
0
230
1
0
CIRCLE
5
123
100
AcDbEntity
8
0
100
AcDbCircle
10
-96.069200000002212
20
87.03875113503895
30
0
40
1.2000000000000151
210
0
220
0
230
1
0
CIRCLE
5
124
100
AcDbEntity
8
0
100
AcDbCircle
10
-144.73159998728258
20
100.73875113503894
30
0
40
3.0000000000000027
210
0
220
0
230
1
0
CIRCLE
5
125
100
AcDbEntity
8
0
100
AcDbCircle
10
-144.73159998728266
20
80.738751135038939
30
0
40
2.9999999999999973
210
0
220
0
230
1
0
CIRCLE
5
126
100
AcDbEntity
8
0
100
AcDbCircle
10
-144.73159998728258
20
100.73875113503894
30
0
40
3.0000000000000027
210
0
220
0
230
1
0
CIRCLE
5
127
100
AcDbEntity
8
0
100
AcDbCircle
10
-96.06920000000261
20
100.73875113503897
30
0
40
2.9999999999999973
210
0
220
0
230
1
0
CIRCLE
5
128
100
AcDbEntity
8
0
100
AcDbCircle
10
-180.73160000000024
20
80.738751135038939
30
0
40
3.1750000000000127
210
0
220
0
230
1
0
CIRCLE
5
129
100
AcDbEntity
8
0
100
AcDbCircle
10
-144.73159998728258
20
100.73875113503894
30
0
40
3.0000000000000027
210
0
220
0
230
1
0
CIRCLE
5
130
100
AcDbEntity
8
0
100
AcDbCircle
10
-96.069200000002027
20
117.73875113487725
30
0
40
4
210
0
220
0
230
1
0
CIRCLE
5
131
100
AcDbEntity
8
0
100
AcDbCircle
10
-272.1816000000004
20
117.73875113487721
30
0
40
4.499999999999992
210
0
220
0
230
1
0
CIRCLE
5
132
100
AcDbEntity
8
0
100
AcDbCircle
10
-144.73159998728266
20
80.738751135038939
30
0
40
2.9999999999999973
210
0
220
0
230
1
0
CIRCLE
5
133
100
AcDbEntity
8
0
100
AcDbCircle
10
-265.73160000000041
20
124.18875113487722
30
0
40
1.5000000000000002
210
0
220
0
230
1
0
CIRCLE
5
134
100
AcDbEntity
8
0
100
AcDbCircle
10
-96.069200000002212
20
87.03875113503895
30
0
40
1.2000000000000151
210
0
220
0
230
1
0
CIRCLE
5
135
100
AcDbEntity
8
0
100
AcDbCircle
10
-272.1816000000004
20
84.738751134877205
30
0
40
6.3500000000000103
210
0
220
0
230
1
0
CIRCLE
5
136
100
AcDbEntity
8
0
100
AcDbCircle
10
-265.73160000000041
20
111.28875113487722
30
0
40
1.5000000000000002
210
0
220
0
230
1
0
CIRCLE
5
137
100
AcDbEntity
8
0
100
AcDbCircle
10
-278.63160000000045
20
124.18875113487722
30
0
40
1.5000000000000011
210
0
220
0
230
1
0
CIRCLE
5
138
100
AcDbEntity
8
0
100
AcDbCircle
10
-96.069200000002027
20
80.738751135038939
30
0
40
3.1750000000000127
210
0
220
0
230
1
0
CIRCLE
5
139
100
AcDbEntity
8
0
100
AcDbCircle
10
-278.63160000000045
20
111.28875113487722
30
0
40
1.5000000000000002
210
0
220
0
230
1
0
CIRCLE
5
140
100
AcDbEntity
8
0
100
AcDbCircle
10
-230.73160000000044
20
131.23875113487719
30
0
40
3.0000000000000071
210
0
220
0
230
1
0
CIRCLE
5
141
100
AcDbEntity
8
0
100
AcDbCircle
10
-240.73160000000118
20
87.03875113503895
30
0
40
1.2000000000000151
210
0
220
0
230
1
0
CIRCLE
5
142
100
AcDbEntity
8
0
100
AcDbCircle
10
-180.73160000000044
20
131.23875113487725
30
0
40
3.0000000000000071
210
0
220
0
230
1
0
CIRCLE
5
143
100
AcDbEntity
8
0
100
AcDbCircle
10
-77.01920000000203
20
121.73875113487725
30
0
40
1
210
0
220
0
230
1
0
CIRCLE
5
144
100
AcDbEntity
8
0
100
AcDbCircle
10
-180.73160000000044
20
87.038751135038922
30
0
40
1.2000000000000151
210
0
220
0
230
1
0
CIRCLE
5
145
100
AcDbEntity
8
0
100
AcDbCircle
10
-180.73160000000044
20
104.23875113487725
30
0
40
3.0000000000000071
210
0
220
0
230
1
0
CIRCLE
5
146
100
AcDbEntity
8
0
100
AcDbCircle
10
-144.73159998728258
20
100.73875113503894
30
0
40
3.0000000000000027
210
0
220
0
230
1
0
CIRCLE
5
147
100
AcDbEntity
8
0
100
AcDbCircle
10
-240.73160000000101
20
80.738751135038939
30
0
40
3.1750000000000127
210
0
220
0
230
1
0
CIRCLE
5
148
100
AcDbEntity
8
0
100
AcDbCircle
10
-77.01920000000203
20
117.73875113487725
30
0
40
4
210
0
220
0
230
1
0
CIRCLE
5
149
100
AcDbEntity
8
0
100
AcDbCircle
10
-220.73160000000169
20
80.738751135038939
30
0
40
3.1750000000000127
210
0
220
0
230
1
0
CIRCLE
5
150
100
AcDbEntity
8
0
100
AcDbCircle
10
-77.01920000000203
20
113.73875113487725
30
0
40
1
210
0
220
0
230
1
0
CIRCLE
5
151
100
AcDbEntity
8
0
100
AcDbCircle
10
-96.06920000000261
20
100.73875113503897
30
0
40
2.9999999999999973
210
0
220
0
230
1
0
CIRCLE
5
152
100
AcDbEntity
8
0
100
AcDbCircle
10
-230.73160000000044
20
104.23875113487722
30
0
40
3.0000000000000071
210
0
220
0
230
1
0
CIRCLE
5
153
100
AcDbEntity
8
0
100
AcDbCircle
10
-220.73160000000166
20
87.03875113503895
30
0
40
1.2000000000000151
210
0
220
0
230
1
0
CIRCLE
5
154
100
AcDbEntity
8
0
100
AcDbCircle
10
-96.069200000002027
20
121.73875113487725
30
0
40
1
210
0
220
0
230
1
0
CIRCLE
5
155
100
AcDbEntity
8
0
100
AcDbCircle
10
-96.069200000002027
20
113.73875113487725
30
0
40
1
210
0
220
0
230
1
0
CIRCLE
5
156
100
AcDbEntity
8
0
100
AcDbCircle
10
-180.73160000000044
20
56.238751134877205
30
0
40
3.0000000000000071
210
0
220
0
230
1
0
CIRCLE
5
157
100
AcDbEntity
8
0
100
AcDbCircle
10
-180.73160000000044
20
29.238751134877248
30
0
40
3.0000000000000071
210
0
220
0
230
1
0
CIRCLE
5
158
100
AcDbEntity
8
0
100
AcDbCircle
10
-180.73160000000024
20
5.7387511350392728
30
0
40
3.1750000000000127
210
0
220
0
230
1
0
CIRCLE
5
159
100
AcDbEntity
8
0
100
AcDbCircle
10
-96.069200000002027
20
38.738751134877241
30
0
40
1
210
0
220
0
230
1
0
CIRCLE
5
160
100
AcDbEntity
8
0
100
AcDbCircle
10
-77.019200000002058
20
42.738751134877248
30
0
40
4
210
0
220
0
230
1
0
CIRCLE
5
161
100
AcDbEntity
8
0
100
AcDbCircle
10
-220.73159999962684
20
12.038751130831624
30
0
40
1.2000000000000151
210
0
220
0
230
1
0
CIRCLE
5
162
100
AcDbEntity
8
0
100
AcDbCircle
10
-278.63160000000045
20
49.188751134877222
30
0
40
1.5000000000000011
210
0
220
0
230
1
0
CIRCLE
5
163
100
AcDbEntity
8
0
100
AcDbCircle
10
-96.069200000002027
20
46.738751134877248
30
0
40
1
210
0
220
0
230
1
0
CIRCLE
5
164
100
AcDbEntity
8
0
100
AcDbCircle
10
-96.069200000002269
20
12.038751135038961
30
0
40
1.2000000000000151
210
0
220
0
230
1
0
CIRCLE
5
165
100
AcDbEntity
8
0
100
AcDbCircle
10
-278.63160000000045
20
49.188751134877222
30
0
40
1.5000000000000011
210
0
220
0
230
1
0
CIRCLE
5
166
100
AcDbEntity
8
0
100
AcDbCircle
10
-278.63160000000045
20
36.288751134877216
30
0
40
1.5000000000000002
210
0
220
0
230
1
0
CIRCLE
5
167
100
AcDbEntity
8
0
100
AcDbCircle
10
-278.63160000000045
20
36.288751134877216
30
0
40
1.5000000000000002
210
0
220
0
230
1
0
CIRCLE
5
168
100
AcDbEntity
8
0
100
AcDbCircle
10
-240.73160000000118
20
12.038751130831624
30
0
40
1.2000000000000151
210
0
220
0
230
1
0
CIRCLE
5
169
100
AcDbEntity
8
0
100
AcDbCircle
10
-265.73160000000041
20
36.288751134877216
30
0
40
1.5000000000000002
210
0
220
0
230
1
0
CIRCLE
5
170
100
AcDbEntity
8
0
100
AcDbCircle
10
-96.069200000002269
20
12.038751135038961
30
0
40
1.2000000000000151
210
0
220
0
230
1
0
CIRCLE
5
171
100
AcDbEntity
8
0
100
AcDbCircle
10
-96.069200000002027
20
42.738751134877248
30
0
40
4
210
0
220
0
230
1
0
CIRCLE
5
172
100
AcDbEntity
8
0
100
AcDbCircle
10
-272.1816000000004
20
42.738751134877262
30
0
40
4.499999999999992
210
0
220
0
230
1
0
CIRCLE
5
173
100
AcDbEntity
8
0
100
AcDbCircle
10
-96.069200000002027
20
38.738751134877241
30
0
40
1
210
0
220
0
230
1
0
CIRCLE
5
174
100
AcDbEntity
8
0
100
AcDbCircle
10
-77.019200000002058
20
42.738751134877248
30
0
40
4
210
0
220
0
230
1
0
CIRCLE
5
175
100
AcDbEntity
8
0
100
AcDbCircle
10
-77.019200000002058
20
38.738751134877241
30
0
40
1
210
0
220
0
230
1
0
CIRCLE
5
176
100
AcDbEntity
8
0
100
AcDbCircle
10
-96.069200000002027
20
42.738751134877248
30
0
40
4
210
0
220
0
230
1
0
CIRCLE
5
177
100
AcDbEntity
8
0
100
AcDbCircle
10
-265.73160000000041
20
49.188751134877222
30
0
40
1.5000000000000002
210
0
220
0
230
1
0
CIRCLE
5
178
100
AcDbEntity
8
0
100
AcDbCircle
10
-144.731599995761
20
5.7387511350392728
30
0
40
2.9999999999999973
210
0
220
0
230
1
0
CIRCLE
5
179
100
AcDbEntity
8
0
100
AcDbCircle
10
-180.73160000000044
20
12.038751135039263
30
0
40
1.2000000000000151
210
0
220
0
230
1
0
CIRCLE
5
180
100
AcDbEntity
8
0
100
AcDbCircle
10
-180.73160000000044
20
29.238751134877248
30
0
40
3.0000000000000071
210
0
220
0
230
1
0
CIRCLE
5
181
100
AcDbEntity
8
0
100
AcDbCircle
10
-77.019200000002058
20
46.738751134877248
30
0
40
1
210
0
220
0
230
1
0
CIRCLE
5
182
100
AcDbEntity
8
0
100
AcDbCircle
10
-96.069200000002652
20
25.738751135038971
30
0
40
2.9999999999999973
210
0
220
0
230
1
0
CIRCLE
5
183
100
AcDbEntity
8
0
100
AcDbCircle
10
-96.069200000002652
20
25.738751135038971
30
0
40
2.9999999999999973
210
0
220
0
230
1
0
CIRCLE
5
184
100
AcDbEntity
8
0
100
AcDbCircle
10
-77.019200000002058
20
46.738751134877248
30
0
40
1
210
0
220
0
230
1
0
CIRCLE
5
185
100
AcDbEntity
8
0
100
AcDbCircle
10
-265.73160000000041
20
49.188751134877222
30
0
40
1.5000000000000002
210
0
220
0
230
1
0
CIRCLE
5
186
100
AcDbEntity
8
0
100
AcDbCircle
10
-230.73160000000044
20
29.238751134877266
30
0
40
3.0000000000000071
210
0
220
0
230
1
0
CIRCLE
5
187
100
AcDbEntity
8
0
100
AcDbCircle
10
-220.73159999962684
20
12.038751130831624
30
0
40
1.2000000000000151
210
0
220
0
230
1
0
CIRCLE
5
188
100
AcDbEntity
8
0
100
AcDbCircle
10
-220.73159999962687
20
5.7387511308316164
30
0
40
3.1750000000000127
210
0
220
0
230
1
0
CIRCLE
5
189
100
AcDbEntity
8
0
100
AcDbCircle
10
-96.06920000000207
20
5.7387511350389531
30
0
40
3.1750000000000127
210
0
220
0
230
1
0
CIRCLE
5
190
100
AcDbEntity
8
0
100
AcDbCircle
10
-230.73160000000044
20
29.238751134877266
30
0
40
3.0000000000000071
210
0
220
0
230
1
0
CIRCLE
5
191
100
AcDbEntity
8
0
100
AcDbCircle
10
-144.731599995761
20
5.7387511350392728
30
0
40
2.9999999999999973
210
0
220
0
230
1
0
CIRCLE
5
192
100
AcDbEntity
8
0
100
AcDbCircle
10
-220.73159999962687
20
5.7387511308316164
30
0
40
3.1750000000000127
210
0
220
0
230
1
0
CIRCLE
5
193
100
AcDbEntity
8
0
100
AcDbCircle
10
-96.06920000000207
20
5.7387511350389531
30
0
40
3.1750000000000127
210
0
220
0
230
1
0
CIRCLE
5
194
100
AcDbEntity
8
0
100
AcDbCircle
10
-77.019200000002058
20
38.738751134877241
30
0
40
1
210
0
220
0
230
1
0
CIRCLE
5
195
100
AcDbEntity
8
0
100
AcDbCircle
10
-96.069200000002027
20
46.738751134877248
30
0
40
1
210
0
220
0
230
1
0
CIRCLE
5
196
100
AcDbEntity
8
0
100
AcDbCircle
10
-144.73159999576094
20
25.738751135039273
30
0
40
3.0000000000000027
210
0
220
0
230
1
0
CIRCLE
5
197
100
AcDbEntity
8
0
100
AcDbCircle
10
-144.73159999576094
20
25.738751135039273
30
0
40
3.0000000000000027
210
0
220
0
230
1
0
CIRCLE
5
198
100
AcDbEntity
8
0
100
AcDbCircle
10
-180.73160000000024
20
5.7387511350392728
30
0
40
3.1750000000000127
210
0
220
0
230
1
0
CIRCLE
5
199
100
AcDbEntity
8
0
100
AcDbCircle
10
-180.73160000000044
20
12.038751135039263
30
0
40
1.2000000000000151
210
0
220
0
230
1
0
CIRCLE
5
200
100
AcDbEntity
8
0
100
AcDbCircle
10
-144.73159998728258
20
25.738751135038935
30
0
40
3.0000000000000027
210
0
220
0
230
1
0
CIRCLE
5
201
100
AcDbEntity
8
0
100
AcDbCircle
10
-240.73160000000118
20
12.038751130831624
30
0
40
1.2000000000000151
210
0
220
0
230
1
0
CIRCLE
5
202
100
AcDbEntity
8
0
100
AcDbCircle
10
-180.73160000000044
20
56.238751134877205
30
0
40
3.0000000000000071
210
0
220
0
230
1
0
CIRCLE
5
203
100
AcDbEntity
8
0
100
AcDbCircle
10
-144.73159998728258
20
25.738751135038935
30
0
40
3.0000000000000027
210
0
220
0
230
1
0
CIRCLE
5
204
100
AcDbEntity
8
0
100
AcDbCircle
10
-272.18160000000086
20
9.7387511348775746
30
0
40
6.3500000000000103
210
0
220
0
230
1
0
CIRCLE
5
205
100
AcDbEntity
8
0
100
AcDbCircle
10
-240.73160000000101
20
5.7387511308316164
30
0
40
3.1750000000000127
210
0
220
0
230
1
0
CIRCLE
5
206
100
AcDbEntity
8
0
100
AcDbCircle
10
-272.1816000000004
20
42.738751134877262
30
0
40
4.499999999999992
210
0
220
0
230
1
0
CIRCLE
5
207
100
AcDbEntity
8
0
100
AcDbCircle
10
-272.18160000000086
20
9.7387511348775746
30
0
40
6.3500000000000103
210
0
220
0
230
1
0
CIRCLE
5
208
100
AcDbEntity
8
0
100
AcDbCircle
10
-240.73160000000101
20
5.7387511308316164
30
0
40
3.1750000000000127
210
0
220
0
230
1
0
CIRCLE
5
209
100
AcDbEntity
8
0
100
AcDbCircle
10
-230.73160000000044
20
56.238751134877262
30
0
40
3.0000000000000071
210
0
220
0
230
1
0
CIRCLE
5
210
100
AcDbEntity
8
0
100
AcDbCircle
10
-230.73160000000044
20
56.238751134877262
30
0
40
3.0000000000000071
210
0
220
0
230
1
0
CIRCLE
5
211
100
AcDbEntity
8
0
100
AcDbCircle
10
-265.73160000000041
20
36.288751134877216
30
0
40
1.5000000000000002
210
0
220
0
230
1
0
LWPOLYLINE
5
212
100
AcDbEntity
8
0
100
AcDbPolyline
90
4
70
1
43
0.0
10
-54.457599999999275
20
-16.523648865126827
10
-301.19319999999868
20
-16.523648865126827
10
-301.19319999999868
20
146.1887511348711
10
-54.457599999999275
20
146.18875113487084
0
ENDSEC
0
SECTION
2
OBJECTS
0
DICTIONARY
5
C
100
AcDbDictionary
3
ACAD_GROUP
350
D
3
ACAD_MLINESTYLE
350
17
0
DICTIONARY
5
D
100
AcDbDictionary
0
DICTIONARY
5
1A
330
C
100
AcDbDictionary
0
DICTIONARY
5
17
100
AcDbDictionary
0
ENDSEC
0
EOF
