ISO-10303-21;
HEADER;
/****************************************************************
 * Generated by software with PDE/Lib inside                    *
 * PDElib Version v51a, created Thu 12/14/2006                  *
 * International Technegroup Inc. (www.iti-oh.com)              *
 ****************************************************************/
FILE_DESCRIPTION((''),'2;1');
FILE_NAME('E:\\Eng\\Customer Service\\Drawings\\1401\\3D Files\\1401K\\1401K - Top Cover.stp','2007-10-24T08:26:49',('trinas'),(''),'Autodesk Inventor 2008','Autodesk Inventor 2008','');
FILE_SCHEMA(('AUTOMOTIVE_DESIGN { 1 0 10303 214 1 1 1 1 }'));
ENDSEC;
DATA;
#5=APPLICATION_CONTEXT('automotive design');
#6=APPLICATION_PROTOCOL_DEFINITION('International Standard','automotive_design',2001,#5);
#7=PRODUCT_CONTEXT('',#5,'mechanical');
#8=PRODUCT('1401K - Top Cover','1401K - Top Cover',$,(#7));
#9=PRODUCT_RELATED_PRODUCT_CATEGORY('part',$,(#8));
#10=PRODUCT_DEFINITION_FORMATION('',$,#8);
#11=PRODUCT_DEFINITION_CONTEXT('part definition',#5,'design');
#12=PRODUCT_DEFINITION('',$,#10,#11);
#18=(NAMED_UNIT(*)PLANE_ANGLE_UNIT()SI_UNIT($,.RADIAN.));
#19=DIMENSIONAL_EXPONENTS(0.0,0.0,0.0,0.0,0.0,0.0,0.0);
#20=PLANE_ANGLE_MEASURE_WITH_UNIT(PLANE_ANGLE_MEASURE(0.017453292500000),#18);
#24=(CONVERSION_BASED_UNIT('DEGREE',#20)NAMED_UNIT(#19)PLANE_ANGLE_UNIT());
#28=(NAMED_UNIT(*)SI_UNIT($,.STERADIAN.)SOLID_ANGLE_UNIT());
#32=(LENGTH_UNIT()NAMED_UNIT(*)SI_UNIT(.CENTI.,.METRE.));
#33=DIMENSIONAL_EXPONENTS(1.0,0.0,0.0,0.0,0.0,0.0,0.0);
#34=LENGTH_MEASURE_WITH_UNIT(LENGTH_MEASURE(2.540000000000000),#32);
#38=(CONVERSION_BASED_UNIT('INCH',#34)LENGTH_UNIT()NAMED_UNIT(#33));
#40=UNCERTAINTY_MEASURE_WITH_UNIT(LENGTH_MEASURE(0.000393700787402),#38,'DISTANCE_ACCURACY_VALUE','');
#42=(GEOMETRIC_REPRESENTATION_CONTEXT(3)GLOBAL_UNCERTAINTY_ASSIGNED_CONTEXT((#40))GLOBAL_UNIT_ASSIGNED_CONTEXT((#24,#28,#38))REPRESENTATION_CONTEXT('None','None'));
#43=AXIS2_PLACEMENT_3D('',#44,#45,#46);
#44=CARTESIAN_POINT('',(0.0,0.0,0.0));
#45=DIRECTION('',(0.0,0.0,1.0));
#46=DIRECTION('',(1.0,0.0,0.0));
#47=SHAPE_REPRESENTATION('',(#43),#42);
#48=PRODUCT_DEFINITION_SHAPE('','',#12);
#49=SHAPE_DEFINITION_REPRESENTATION(#48,#47);
#55=(NAMED_UNIT(*)PLANE_ANGLE_UNIT()SI_UNIT($,.RADIAN.));
#56=DIMENSIONAL_EXPONENTS(0.0,0.0,0.0,0.0,0.0,0.0,0.0);
#57=PLANE_ANGLE_MEASURE_WITH_UNIT(PLANE_ANGLE_MEASURE(0.017453292500000),#55);
#61=(CONVERSION_BASED_UNIT('DEGREE',#57)NAMED_UNIT(#56)PLANE_ANGLE_UNIT());
#65=(NAMED_UNIT(*)SI_UNIT($,.STERADIAN.)SOLID_ANGLE_UNIT());
#69=(LENGTH_UNIT()NAMED_UNIT(*)SI_UNIT(.MILLI.,.METRE.));
#71=UNCERTAINTY_MEASURE_WITH_UNIT(LENGTH_MEASURE(0.000001000000000),#69,'DISTANCE_ACCURACY_VALUE','');
#73=(GEOMETRIC_REPRESENTATION_CONTEXT(3)GLOBAL_UNCERTAINTY_ASSIGNED_CONTEXT((#71))GLOBAL_UNIT_ASSIGNED_CONTEXT((#61,#65,#69))REPRESENTATION_CONTEXT('','3D'));
#74=CARTESIAN_POINT('',(-13.187000000000006,-0.374999999999998,12.508926294893133));
#75=DIRECTION('',(0.0,2.473835E-016,1.0));
#76=DIRECTION('',(1.0,0.0,0.0));
#77=AXIS2_PLACEMENT_3D('',#74,#75,#76);
#78=CYLINDRICAL_SURFACE('',#77,0.101500000000000);
#79=CARTESIAN_POINT('',(-13.288500000000006,-0.375000000000002,-4.952000000000000));
#80=VERTEX_POINT('',#79);
#81=CARTESIAN_POINT('',(-13.187000000000006,-0.375000000000002,-4.952000000000000));
#82=DIRECTION('',(0.0,0.0,-1.0));
#83=DIRECTION('',(1.0,0.0,0.0));
#84=AXIS2_PLACEMENT_3D('',#81,#82,#83);
#85=CIRCLE('',#84,0.101500000000000);
#86=EDGE_CURVE('',#80,#80,#85,.T.);
#87=ORIENTED_EDGE('',*,*,#86,.F.);
#88=EDGE_LOOP('',(#87));
#89=FACE_OUTER_BOUND('',#88,.T.);
#90=CARTESIAN_POINT('',(-13.085500000000007,-0.375000000000002,-4.999999999999998));
#91=VERTEX_POINT('',#90);
#92=CARTESIAN_POINT('',(-13.187000000000006,-0.375000000000002,-4.999999999999998));
#93=DIRECTION('',(0.0,0.0,1.0));
#94=DIRECTION('',(1.0,0.0,0.0));
#95=AXIS2_PLACEMENT_3D('',#92,#93,#94);
#96=CIRCLE('',#95,0.101500000000000);
#97=EDGE_CURVE('',#91,#91,#96,.T.);
#98=ORIENTED_EDGE('',*,*,#97,.F.);
#99=EDGE_LOOP('',(#98));
#100=FACE_BOUND('',#99,.T.);
#101=ADVANCED_FACE('',(#89,#100),#78,.F.);
#102=CARTESIAN_POINT('',(-0.813000000000000,-0.374999999999998,12.508926294893133));
#103=DIRECTION('',(0.0,2.473835E-016,1.0));
#104=DIRECTION('',(1.0,0.0,0.0));
#105=AXIS2_PLACEMENT_3D('',#102,#103,#104);
#106=CYLINDRICAL_SURFACE('',#105,0.101500000000000);
#107=CARTESIAN_POINT('',(-0.914500000000000,-0.375000000000002,-4.952000000000000));
#108=VERTEX_POINT('',#107);
#109=CARTESIAN_POINT('',(-0.813000000000000,-0.375000000000002,-4.952000000000000));
#110=DIRECTION('',(0.0,0.0,-1.0));
#111=DIRECTION('',(1.0,0.0,0.0));
#112=AXIS2_PLACEMENT_3D('',#109,#110,#111);
#113=CIRCLE('',#112,0.101500000000000);
#114=EDGE_CURVE('',#108,#108,#113,.T.);
#115=ORIENTED_EDGE('',*,*,#114,.F.);
#116=EDGE_LOOP('',(#115));
#117=FACE_OUTER_BOUND('',#116,.T.);
#118=CARTESIAN_POINT('',(-0.711500000000000,-0.375000000000002,-4.999999999999998));
#119=VERTEX_POINT('',#118);
#120=CARTESIAN_POINT('',(-0.813000000000000,-0.375000000000002,-4.999999999999998));
#121=DIRECTION('',(0.0,0.0,1.0));
#122=DIRECTION('',(1.0,0.0,0.0));
#123=AXIS2_PLACEMENT_3D('',#120,#121,#122);
#124=CIRCLE('',#123,0.101500000000000);
#125=EDGE_CURVE('',#119,#119,#124,.T.);
#126=ORIENTED_EDGE('',*,*,#125,.F.);
#127=EDGE_LOOP('',(#126));
#128=FACE_BOUND('',#127,.T.);
#129=ADVANCED_FACE('',(#117,#128),#106,.F.);
#130=CARTESIAN_POINT('',(-13.288500000000006,-0.375000000000002,4.999999999999996));
#131=CARTESIAN_POINT('',(-13.288500000000006,-0.375000000000002,4.952000000000002));
#132=CARTESIAN_POINT('',(-13.288500000000004,-0.476500000000002,4.999999999999996));
#133=CARTESIAN_POINT('',(-13.288500000000004,-0.476500000000002,4.952000000000002));
#134=CARTESIAN_POINT('',(-13.187000000000006,-0.476500000000002,4.999999999999996));
#135=CARTESIAN_POINT('',(-13.187000000000006,-0.476500000000002,4.952000000000002));
#136=CARTESIAN_POINT('',(-13.085500000000007,-0.476500000000002,4.999999999999996));
#137=CARTESIAN_POINT('',(-13.085500000000007,-0.476500000000002,4.952000000000002));
#138=CARTESIAN_POINT('',(-13.085500000000007,-0.375000000000002,4.999999999999996));
#139=CARTESIAN_POINT('',(-13.085500000000007,-0.375000000000002,4.952000000000002));
#140=CARTESIAN_POINT('',(-13.085500000000007,-0.273500000000002,4.999999999999996));
#141=CARTESIAN_POINT('',(-13.085500000000007,-0.273500000000002,4.952000000000002));
#142=CARTESIAN_POINT('',(-13.187000000000006,-0.273500000000002,4.999999999999996));
#143=CARTESIAN_POINT('',(-13.187000000000006,-0.273500000000002,4.952000000000002));
#144=CARTESIAN_POINT('',(-13.288500000000004,-0.273500000000002,4.999999999999996));
#145=CARTESIAN_POINT('',(-13.288500000000004,-0.273500000000002,4.952000000000002));
#146=CARTESIAN_POINT('',(-13.288500000000006,-0.375000000000002,4.999999999999996));
#147=CARTESIAN_POINT('',(-13.288500000000006,-0.375000000000002,4.952000000000002));
#155=(BOUNDED_SURFACE()B_SPLINE_SURFACE(1,2,((#130,#132,#134,#136,#138,#140,#142,#144,#146),(#131,#133,#135,#137,#139,#141,#143,#145,#147)),.UNSPECIFIED.,.F.,.T.,.U.)B_SPLINE_SURFACE_WITH_KNOTS((2,2),(3,2,2,2,3),(-172.501736895498770,-172.028830491557950),(0.0,0.159435827169682,0.318871654339364,0.478307481509046,0.637743308678728),.UNSPECIFIED.)GEOMETRIC_REPRESENTATION_ITEM()RATIONAL_B_SPLINE_SURFACE(((1.0,0.707106781186548,1.0,0.707106781186548,1.0,0.707106781186548,1.0,0.707106781186548,1.0),(1.0,0.707106781186548,1.0,0.707106781186548,1.0,0.707106781186548,1.0,0.707106781186548,1.0)))REPRESENTATION_ITEM('')SURFACE());
#156=CARTESIAN_POINT('',(-13.288500000000006,-0.375000000000002,4.952000000000000));
#157=VERTEX_POINT('',#156);
#158=CARTESIAN_POINT('',(-13.187000000000006,-0.375000000000002,4.952000000000000));
#159=DIRECTION('',(0.0,0.0,1.0));
#160=DIRECTION('',(1.0,0.0,0.0));
#161=AXIS2_PLACEMENT_3D('',#158,#159,#160);
#162=CIRCLE('',#161,0.101500000000000);
#163=EDGE_CURVE('',#157,#157,#162,.T.);
#164=ORIENTED_EDGE('',*,*,#163,.F.);
#165=EDGE_LOOP('',(#164));
#166=FACE_OUTER_BOUND('',#165,.T.);
#167=CARTESIAN_POINT('',(-13.085500000000007,-0.375000000000002,4.999999999999998));
#168=VERTEX_POINT('',#167);
#169=CARTESIAN_POINT('',(-13.187000000000006,-0.375000000000002,4.999999999999998));
#170=DIRECTION('',(0.0,0.0,-1.0));
#171=DIRECTION('',(1.0,0.0,0.0));
#172=AXIS2_PLACEMENT_3D('',#169,#170,#171);
#173=CIRCLE('',#172,0.101500000000000);
#174=EDGE_CURVE('',#168,#168,#173,.T.);
#175=ORIENTED_EDGE('',*,*,#174,.F.);
#176=EDGE_LOOP('',(#175));
#177=FACE_BOUND('',#176,.T.);
#178=ADVANCED_FACE('',(#166,#177),#155,.F.);
#179=CARTESIAN_POINT('',(-0.914500000000000,-0.375000000000002,4.999999999999996));
#180=CARTESIAN_POINT('',(-0.914500000000000,-0.375000000000002,4.952000000000002));
#181=CARTESIAN_POINT('',(-0.914500000000000,-0.476500000000002,4.999999999999996));
#182=CARTESIAN_POINT('',(-0.914500000000000,-0.476500000000002,4.952000000000002));
#183=CARTESIAN_POINT('',(-0.813000000000000,-0.476500000000002,4.999999999999996));
#184=CARTESIAN_POINT('',(-0.813000000000000,-0.476500000000002,4.952000000000002));
#185=CARTESIAN_POINT('',(-0.711500000000000,-0.476500000000002,4.999999999999996));
#186=CARTESIAN_POINT('',(-0.711500000000000,-0.476500000000002,4.952000000000002));
#187=CARTESIAN_POINT('',(-0.711500000000000,-0.375000000000002,4.999999999999996));
#188=CARTESIAN_POINT('',(-0.711500000000000,-0.375000000000002,4.952000000000002));
#189=CARTESIAN_POINT('',(-0.711500000000000,-0.273500000000002,4.999999999999996));
#190=CARTESIAN_POINT('',(-0.711500000000000,-0.273500000000002,4.952000000000002));
#191=CARTESIAN_POINT('',(-0.813000000000000,-0.273500000000002,4.999999999999996));
#192=CARTESIAN_POINT('',(-0.813000000000000,-0.273500000000002,4.952000000000002));
#193=CARTESIAN_POINT('',(-0.914500000000000,-0.273500000000002,4.999999999999996));
#194=CARTESIAN_POINT('',(-0.914500000000000,-0.273500000000002,4.952000000000002));
#195=CARTESIAN_POINT('',(-0.914500000000000,-0.375000000000002,4.999999999999996));
#196=CARTESIAN_POINT('',(-0.914500000000000,-0.375000000000002,4.952000000000002));
#204=(BOUNDED_SURFACE()B_SPLINE_SURFACE(1,2,((#179,#181,#183,#185,#187,#189,#191,#193,#195),(#180,#182,#184,#186,#188,#190,#192,#194,#196)),.UNSPECIFIED.,.F.,.T.,.U.)B_SPLINE_SURFACE_WITH_KNOTS((2,2),(3,2,2,2,3),(-172.501736895498770,-172.028830491557950),(0.0,0.159435827169682,0.318871654339364,0.478307481509046,0.637743308678728),.UNSPECIFIED.)GEOMETRIC_REPRESENTATION_ITEM()RATIONAL_B_SPLINE_SURFACE(((1.0,0.707106781186548,1.0,0.707106781186548,1.0,0.707106781186548,1.0,0.707106781186548,1.0),(1.0,0.707106781186548,1.0,0.707106781186548,1.0,0.707106781186548,1.0,0.707106781186548,1.0)))REPRESENTATION_ITEM('')SURFACE());
#205=CARTESIAN_POINT('',(-0.914500000000000,-0.375000000000002,4.952000000000000));
#206=VERTEX_POINT('',#205);
#207=CARTESIAN_POINT('',(-0.813000000000000,-0.375000000000002,4.952000000000000));
#208=DIRECTION('',(0.0,0.0,1.0));
#209=DIRECTION('',(1.0,0.0,0.0));
#210=AXIS2_PLACEMENT_3D('',#207,#208,#209);
#211=CIRCLE('',#210,0.101500000000000);
#212=EDGE_CURVE('',#206,#206,#211,.T.);
#213=ORIENTED_EDGE('',*,*,#212,.F.);
#214=EDGE_LOOP('',(#213));
#215=FACE_OUTER_BOUND('',#214,.T.);
#216=CARTESIAN_POINT('',(-0.711500000000000,-0.375000000000002,4.999999999999998));
#217=VERTEX_POINT('',#216);
#218=CARTESIAN_POINT('',(-0.813000000000000,-0.375000000000002,4.999999999999998));
#219=DIRECTION('',(0.0,0.0,-1.0));
#220=DIRECTION('',(1.0,0.0,0.0));
#221=AXIS2_PLACEMENT_3D('',#218,#219,#220);
#222=CIRCLE('',#221,0.101500000000000);
#223=EDGE_CURVE('',#217,#217,#222,.T.);
#224=ORIENTED_EDGE('',*,*,#223,.F.);
#225=EDGE_LOOP('',(#224));
#226=FACE_BOUND('',#225,.T.);
#227=ADVANCED_FACE('',(#215,#226),#204,.F.);
#228=CARTESIAN_POINT('',(0.0,1.202000000000000,-4.952000000000000));
#229=DIRECTION('',(0.0,0.0,1.0));
#230=DIRECTION('',(1.0,0.0,0.0));
#231=AXIS2_PLACEMENT_3D('',#228,#229,#230);
#232=PLANE('',#231);
#233=CARTESIAN_POINT('',(-14.000000000000002,1.202000000000000,-4.952000000000000));
#234=VERTEX_POINT('',#233);
#235=CARTESIAN_POINT('',(-14.000000000000002,-1.625000000000001,-4.952000000000000));
#236=VERTEX_POINT('',#235);
#237=CARTESIAN_POINT('',(-14.000000000000002,1.202000000000000,-4.952000000000000));
#238=DIRECTION('',(0.0,-1.0,0.0));
#239=VECTOR('',#238,2.827000000000001);
#240=LINE('',#237,#239);
#241=EDGE_CURVE('',#234,#236,#240,.T.);
#242=ORIENTED_EDGE('',*,*,#241,.T.);
#243=CARTESIAN_POINT('',(0.0,-1.625000000000001,-4.952000000000000));
#244=VERTEX_POINT('',#243);
#245=CARTESIAN_POINT('',(0.0,-1.625000000000001,-4.952000000000000));
#246=DIRECTION('',(-1.0,0.0,0.0));
#247=VECTOR('',#246,14.000000000000002);
#248=LINE('',#245,#247);
#249=EDGE_CURVE('',#244,#236,#248,.T.);
#250=ORIENTED_EDGE('',*,*,#249,.F.);
#251=CARTESIAN_POINT('',(0.0,1.202000000000000,-4.952000000000000));
#252=VERTEX_POINT('',#251);
#253=CARTESIAN_POINT('',(0.0,-1.625000000000001,-4.952000000000000));
#254=DIRECTION('',(0.0,1.0,0.0));
#255=VECTOR('',#254,2.827000000000001);
#256=LINE('',#253,#255);
#257=EDGE_CURVE('',#244,#252,#256,.T.);
#258=ORIENTED_EDGE('',*,*,#257,.T.);
#259=CARTESIAN_POINT('',(0.0,1.202000000000000,-4.952000000000000));
#260=DIRECTION('',(-1.0,0.0,0.0));
#261=VECTOR('',#260,14.000000000000002);
#262=LINE('',#259,#261);
#263=EDGE_CURVE('',#252,#234,#262,.T.);
#264=ORIENTED_EDGE('',*,*,#263,.T.);
#265=EDGE_LOOP('',(#242,#250,#258,#264));
#266=FACE_OUTER_BOUND('',#265,.T.);
#267=ORIENTED_EDGE('',*,*,#86,.T.);
#268=EDGE_LOOP('',(#267));
#269=FACE_BOUND('',#268,.T.);
#270=ORIENTED_EDGE('',*,*,#114,.T.);
#271=EDGE_LOOP('',(#270));
#272=FACE_BOUND('',#271,.T.);
#273=ADVANCED_FACE('',(#266,#269,#272),#232,.T.);
#274=CARTESIAN_POINT('',(0.0,-1.625000000000001,-4.999999999999999));
#275=DIRECTION('',(0.0,0.0,-1.0));
#276=DIRECTION('',(-1.0,0.0,0.0));
#277=AXIS2_PLACEMENT_3D('',#274,#275,#276);
#278=PLANE('',#277);
#279=CARTESIAN_POINT('',(-14.000000000000002,-1.625000000000001,-4.999999999999999));
#280=VERTEX_POINT('',#279);
#281=CARTESIAN_POINT('',(-14.000000000000002,1.202000000000000,-5.0));
#282=VERTEX_POINT('',#281);
#283=CARTESIAN_POINT('',(-14.000000000000002,-1.625000000000001,-4.999999999999999));
#284=DIRECTION('',(0.0,1.0,0.0));
#285=VECTOR('',#284,2.827000000000001);
#286=LINE('',#283,#285);
#287=EDGE_CURVE('',#280,#282,#286,.T.);
#288=ORIENTED_EDGE('',*,*,#287,.T.);
#289=CARTESIAN_POINT('',(0.0,1.202000000000000,-5.0));
#290=VERTEX_POINT('',#289);
#291=CARTESIAN_POINT('',(0.0,1.202000000000000,-5.0));
#292=DIRECTION('',(-1.0,0.0,0.0));
#293=VECTOR('',#292,14.000000000000002);
#294=LINE('',#291,#293);
#295=EDGE_CURVE('',#290,#282,#294,.T.);
#296=ORIENTED_EDGE('',*,*,#295,.F.);
#297=CARTESIAN_POINT('',(0.0,-1.625000000000001,-4.999999999999999));
#298=VERTEX_POINT('',#297);
#299=CARTESIAN_POINT('',(0.0,1.202000000000000,-5.0));
#300=DIRECTION('',(0.0,-1.0,0.0));
#301=VECTOR('',#300,2.827000000000001);
#302=LINE('',#299,#301);
#303=EDGE_CURVE('',#290,#298,#302,.T.);
#304=ORIENTED_EDGE('',*,*,#303,.T.);
#305=CARTESIAN_POINT('',(0.0,-1.625000000000001,-4.999999999999999));
#306=DIRECTION('',(-1.0,0.0,0.0));
#307=VECTOR('',#306,14.000000000000002);
#308=LINE('',#305,#307);
#309=EDGE_CURVE('',#298,#280,#308,.T.);
#310=ORIENTED_EDGE('',*,*,#309,.T.);
#311=EDGE_LOOP('',(#288,#296,#304,#310));
#312=FACE_OUTER_BOUND('',#311,.T.);
#313=ORIENTED_EDGE('',*,*,#97,.T.);
#314=EDGE_LOOP('',(#313));
#315=FACE_BOUND('',#314,.T.);
#316=ORIENTED_EDGE('',*,*,#125,.T.);
#317=EDGE_LOOP('',(#316));
#318=FACE_BOUND('',#317,.T.);
#319=ADVANCED_FACE('',(#312,#315,#318),#278,.T.);
#320=CARTESIAN_POINT('',(0.0,-1.625000000000002,4.999999999999999));
#321=DIRECTION('',(0.0,-1.0,0.0));
#322=DIRECTION('',(0.0,0.0,-1.0));
#323=AXIS2_PLACEMENT_3D('',#320,#321,#322);
#324=PLANE('',#323);
#325=CARTESIAN_POINT('',(-14.000000000000002,-1.625000000000002,4.999999999999999));
#326=VERTEX_POINT('',#325);
#327=CARTESIAN_POINT('',(-14.000000000000002,-1.625000000000002,4.952000000000000));
#328=VERTEX_POINT('',#327);
#329=CARTESIAN_POINT('',(-14.000000000000002,-1.625000000000002,4.999999999999999));
#330=DIRECTION('',(0.0,0.0,-1.0));
#331=VECTOR('',#330,0.047999999999999);
#332=LINE('',#329,#331);
#333=EDGE_CURVE('',#326,#328,#332,.T.);
#334=ORIENTED_EDGE('',*,*,#333,.T.);
#335=CARTESIAN_POINT('',(0.0,-1.625000000000002,4.952000000000000));
#336=VERTEX_POINT('',#335);
#337=CARTESIAN_POINT('',(0.0,-1.625000000000002,4.952000000000000));
#338=DIRECTION('',(-1.0,0.0,0.0));
#339=VECTOR('',#338,14.000000000000002);
#340=LINE('',#337,#339);
#341=EDGE_CURVE('',#336,#328,#340,.T.);
#342=ORIENTED_EDGE('',*,*,#341,.F.);
#343=CARTESIAN_POINT('',(0.0,-1.625000000000002,4.999999999999999));
#344=VERTEX_POINT('',#343);
#345=CARTESIAN_POINT('',(0.0,-1.625000000000002,4.952000000000000));
#346=DIRECTION('',(0.0,0.0,1.0));
#347=VECTOR('',#346,0.047999999999999);
#348=LINE('',#345,#347);
#349=EDGE_CURVE('',#336,#344,#348,.T.);
#350=ORIENTED_EDGE('',*,*,#349,.T.);
#351=CARTESIAN_POINT('',(0.0,-1.625000000000002,4.999999999999999));
#352=DIRECTION('',(-1.0,0.0,0.0));
#353=VECTOR('',#352,14.000000000000002);
#354=LINE('',#351,#353);
#355=EDGE_CURVE('',#344,#326,#354,.T.);
#356=ORIENTED_EDGE('',*,*,#355,.T.);
#357=EDGE_LOOP('',(#334,#342,#350,#356));
#358=FACE_OUTER_BOUND('',#357,.T.);
#359=ADVANCED_FACE('',(#358),#324,.T.);
#360=CARTESIAN_POINT('',(0.0,-1.625000000000002,4.952000000000000));
#361=DIRECTION('',(0.0,0.0,-1.0));
#362=DIRECTION('',(-1.0,0.0,0.0));
#363=AXIS2_PLACEMENT_3D('',#360,#361,#362);
#364=PLANE('',#363);
#365=CARTESIAN_POINT('',(-14.000000000000002,1.201999999999999,4.952000000000000));
#366=VERTEX_POINT('',#365);
#367=CARTESIAN_POINT('',(-14.000000000000002,-1.625000000000002,4.952000000000000));
#368=DIRECTION('',(0.0,1.0,0.0));
#369=VECTOR('',#368,2.827000000000001);
#370=LINE('',#367,#369);
#371=EDGE_CURVE('',#328,#366,#370,.T.);
#372=ORIENTED_EDGE('',*,*,#371,.T.);
#373=CARTESIAN_POINT('',(0.0,1.201999999999999,4.952000000000000));
#374=VERTEX_POINT('',#373);
#375=CARTESIAN_POINT('',(0.0,1.201999999999999,4.952000000000000));
#376=DIRECTION('',(-1.0,0.0,0.0));
#377=VECTOR('',#376,14.000000000000002);
#378=LINE('',#375,#377);
#379=EDGE_CURVE('',#374,#366,#378,.T.);
#380=ORIENTED_EDGE('',*,*,#379,.F.);
#381=CARTESIAN_POINT('',(0.0,1.201999999999999,4.952000000000000));
#382=DIRECTION('',(0.0,-1.0,0.0));
#383=VECTOR('',#382,2.827000000000001);
#384=LINE('',#381,#383);
#385=EDGE_CURVE('',#374,#336,#384,.T.);
#386=ORIENTED_EDGE('',*,*,#385,.T.);
#387=ORIENTED_EDGE('',*,*,#341,.T.);
#388=EDGE_LOOP('',(#372,#380,#386,#387));
#389=FACE_OUTER_BOUND('',#388,.T.);
#390=ORIENTED_EDGE('',*,*,#163,.T.);
#391=EDGE_LOOP('',(#390));
#392=FACE_BOUND('',#391,.T.);
#393=ORIENTED_EDGE('',*,*,#212,.T.);
#394=EDGE_LOOP('',(#393));
#395=FACE_BOUND('',#394,.T.);
#396=ADVANCED_FACE('',(#389,#392,#395),#364,.T.);
#397=CARTESIAN_POINT('',(0.0,1.201999999999999,4.577000000000001));
#398=DIRECTION('',(-1.0,0.0,0.0));
#399=DIRECTION('',(0.0,1.0,0.0));
#400=AXIS2_PLACEMENT_3D('',#397,#398,#399);
#401=CYLINDRICAL_SURFACE('',#400,0.375000000000000);
#402=CARTESIAN_POINT('',(-14.000000000000002,1.577000000000002,4.577000000000001));
#403=VERTEX_POINT('',#402);
#404=CARTESIAN_POINT('',(-14.000000000000002,1.201999999999999,4.577000000000001));
#405=DIRECTION('',(-1.0,0.0,0.0));
#406=DIRECTION('',(0.0,1.0,0.0));
#407=AXIS2_PLACEMENT_3D('',#404,#405,#406);
#408=CIRCLE('',#407,0.375000000000000);
#409=EDGE_CURVE('',#366,#403,#408,.T.);
#410=ORIENTED_EDGE('',*,*,#409,.T.);
#411=CARTESIAN_POINT('',(0.0,1.577000000000002,4.577000000000001));
#412=VERTEX_POINT('',#411);
#413=CARTESIAN_POINT('',(0.0,1.577000000000002,4.577000000000001));
#414=DIRECTION('',(-1.0,0.0,0.0));
#415=VECTOR('',#414,14.000000000000002);
#416=LINE('',#413,#415);
#417=EDGE_CURVE('',#412,#403,#416,.T.);
#418=ORIENTED_EDGE('',*,*,#417,.F.);
#419=CARTESIAN_POINT('',(0.0,1.201999999999999,4.577000000000001));
#420=DIRECTION('',(1.0,0.0,0.0));
#421=DIRECTION('',(0.0,1.0,0.0));
#422=AXIS2_PLACEMENT_3D('',#419,#420,#421);
#423=CIRCLE('',#422,0.375000000000000);
#424=EDGE_CURVE('',#412,#374,#423,.T.);
#425=ORIENTED_EDGE('',*,*,#424,.T.);
#426=ORIENTED_EDGE('',*,*,#379,.T.);
#427=EDGE_LOOP('',(#410,#418,#425,#426));
#428=FACE_OUTER_BOUND('',#427,.T.);
#429=ADVANCED_FACE('',(#428),#401,.F.);
#430=CARTESIAN_POINT('',(0.0,1.577000000000001,0.0));
#431=DIRECTION('',(0.0,-1.0,0.0));
#432=DIRECTION('',(0.0,0.0,-1.0));
#433=AXIS2_PLACEMENT_3D('',#430,#431,#432);
#434=PLANE('',#433);
#435=CARTESIAN_POINT('',(-14.000000000000002,1.577000000000003,-4.577000000000001));
#436=VERTEX_POINT('',#435);
#437=CARTESIAN_POINT('',(-14.000000000000002,1.577000000000002,4.577000000000001));
#438=DIRECTION('',(0.0,0.0,-1.0));
#439=VECTOR('',#438,9.154000000000002);
#440=LINE('',#437,#439);
#441=EDGE_CURVE('',#403,#436,#440,.T.);
#442=ORIENTED_EDGE('',*,*,#441,.T.);
#443=CARTESIAN_POINT('',(0.0,1.577000000000003,-4.577000000000001));
#444=VERTEX_POINT('',#443);
#445=CARTESIAN_POINT('',(0.0,1.577000000000003,-4.577000000000001));
#446=DIRECTION('',(-1.0,0.0,0.0));
#447=VECTOR('',#446,14.000000000000002);
#448=LINE('',#445,#447);
#449=EDGE_CURVE('',#444,#436,#448,.T.);
#450=ORIENTED_EDGE('',*,*,#449,.F.);
#451=CARTESIAN_POINT('',(0.0,1.577000000000003,-4.577000000000001));
#452=DIRECTION('',(0.0,0.0,1.0));
#453=VECTOR('',#452,9.154000000000002);
#454=LINE('',#451,#453);
#455=EDGE_CURVE('',#444,#412,#454,.T.);
#456=ORIENTED_EDGE('',*,*,#455,.T.);
#457=ORIENTED_EDGE('',*,*,#417,.T.);
#458=EDGE_LOOP('',(#442,#450,#456,#457));
#459=FACE_OUTER_BOUND('',#458,.T.);
#460=ADVANCED_FACE('',(#459),#434,.T.);
#461=CARTESIAN_POINT('',(0.0,1.202000000000000,-4.577000000000001));
#462=DIRECTION('',(-1.0,0.0,0.0));
#463=DIRECTION('',(0.0,0.0,-1.0));
#464=AXIS2_PLACEMENT_3D('',#461,#462,#463);
#465=CYLINDRICAL_SURFACE('',#464,0.375000000000000);
#466=CARTESIAN_POINT('',(-14.000000000000002,1.202000000000000,-4.577000000000001));
#467=DIRECTION('',(-1.0,0.0,0.0));
#468=DIRECTION('',(0.0,0.0,-1.0));
#469=AXIS2_PLACEMENT_3D('',#466,#467,#468);
#470=CIRCLE('',#469,0.375000000000000);
#471=EDGE_CURVE('',#436,#234,#470,.T.);
#472=ORIENTED_EDGE('',*,*,#471,.T.);
#473=ORIENTED_EDGE('',*,*,#263,.F.);
#474=CARTESIAN_POINT('',(0.0,1.202000000000000,-4.577000000000001));
#475=DIRECTION('',(1.0,0.0,0.0));
#476=DIRECTION('',(0.0,0.0,-1.0));
#477=AXIS2_PLACEMENT_3D('',#474,#475,#476);
#478=CIRCLE('',#477,0.375000000000000);
#479=EDGE_CURVE('',#252,#444,#478,.T.);
#480=ORIENTED_EDGE('',*,*,#479,.T.);
#481=ORIENTED_EDGE('',*,*,#449,.T.);
#482=EDGE_LOOP('',(#472,#473,#480,#481));
#483=FACE_OUTER_BOUND('',#482,.T.);
#484=ADVANCED_FACE('',(#483),#465,.F.);
#485=CARTESIAN_POINT('',(0.0,-1.625000000000001,-4.952000000000000));
#486=DIRECTION('',(0.0,-1.0,0.0));
#487=DIRECTION('',(0.0,0.0,-1.0));
#488=AXIS2_PLACEMENT_3D('',#485,#486,#487);
#489=PLANE('',#488);
#490=CARTESIAN_POINT('',(-14.000000000000002,-1.625000000000001,-4.952000000000000));
#491=DIRECTION('',(0.0,0.0,-1.0));
#492=VECTOR('',#491,0.047999999999999);
#493=LINE('',#490,#492);
#494=EDGE_CURVE('',#236,#280,#493,.T.);
#495=ORIENTED_EDGE('',*,*,#494,.T.);
#496=ORIENTED_EDGE('',*,*,#309,.F.);
#497=CARTESIAN_POINT('',(0.0,-1.625000000000001,-4.999999999999999));
#498=DIRECTION('',(0.0,0.0,1.0));
#499=VECTOR('',#498,0.047999999999999);
#500=LINE('',#497,#499);
#501=EDGE_CURVE('',#298,#244,#500,.T.);
#502=ORIENTED_EDGE('',*,*,#501,.T.);
#503=ORIENTED_EDGE('',*,*,#249,.T.);
#504=EDGE_LOOP('',(#495,#496,#502,#503));
#505=FACE_OUTER_BOUND('',#504,.T.);
#506=ADVANCED_FACE('',(#505),#489,.T.);
#507=CARTESIAN_POINT('',(0.0,1.202000000000000,-4.577000000000001));
#508=DIRECTION('',(-1.0,0.0,0.0));
#509=DIRECTION('',(0.0,0.0,1.0));
#510=AXIS2_PLACEMENT_3D('',#507,#508,#509);
#511=CYLINDRICAL_SURFACE('',#510,0.423000000000000);
#512=CARTESIAN_POINT('',(-14.000000000000002,1.625000000000002,-4.577000000000001));
#513=VERTEX_POINT('',#512);
#514=CARTESIAN_POINT('',(-14.000000000000002,1.202000000000000,-4.577000000000001));
#515=DIRECTION('',(1.0,0.0,0.0));
#516=DIRECTION('',(0.0,0.0,1.0));
#517=AXIS2_PLACEMENT_3D('',#514,#515,#516);
#518=CIRCLE('',#517,0.423000000000000);
#519=EDGE_CURVE('',#282,#513,#518,.T.);
#520=ORIENTED_EDGE('',*,*,#519,.T.);
#521=CARTESIAN_POINT('',(0.0,1.625000000000002,-4.577000000000001));
#522=VERTEX_POINT('',#521);
#523=CARTESIAN_POINT('',(0.0,1.625000000000002,-4.577000000000001));
#524=DIRECTION('',(-1.0,0.0,0.0));
#525=VECTOR('',#524,14.000000000000002);
#526=LINE('',#523,#525);
#527=EDGE_CURVE('',#522,#513,#526,.T.);
#528=ORIENTED_EDGE('',*,*,#527,.F.);
#529=CARTESIAN_POINT('',(0.0,1.202000000000000,-4.577000000000001));
#530=DIRECTION('',(-1.0,0.0,0.0));
#531=DIRECTION('',(0.0,0.0,1.0));
#532=AXIS2_PLACEMENT_3D('',#529,#530,#531);
#533=CIRCLE('',#532,0.423000000000000);
#534=EDGE_CURVE('',#522,#290,#533,.T.);
#535=ORIENTED_EDGE('',*,*,#534,.T.);
#536=ORIENTED_EDGE('',*,*,#295,.T.);
#537=EDGE_LOOP('',(#520,#528,#535,#536));
#538=FACE_OUTER_BOUND('',#537,.T.);
#539=ADVANCED_FACE('',(#538),#511,.T.);
#540=CARTESIAN_POINT('',(0.0,1.625000000000000,3.496765E-016));
#541=DIRECTION('',(0.0,1.0,0.0));
#542=DIRECTION('',(0.0,0.0,1.0));
#543=AXIS2_PLACEMENT_3D('',#540,#541,#542);
#544=PLANE('',#543);
#545=CARTESIAN_POINT('',(-14.000000000000002,1.625000000000001,4.577000000000001));
#546=VERTEX_POINT('',#545);
#547=CARTESIAN_POINT('',(-14.000000000000002,1.625000000000002,-4.577000000000001));
#548=DIRECTION('',(0.0,0.0,1.0));
#549=VECTOR('',#548,9.154000000000002);
#550=LINE('',#547,#549);
#551=EDGE_CURVE('',#513,#546,#550,.T.);
#552=ORIENTED_EDGE('',*,*,#551,.T.);
#553=CARTESIAN_POINT('',(0.0,1.625000000000001,4.577000000000001));
#554=VERTEX_POINT('',#553);
#555=CARTESIAN_POINT('',(0.0,1.625000000000001,4.577000000000001));
#556=DIRECTION('',(-1.0,0.0,0.0));
#557=VECTOR('',#556,14.000000000000002);
#558=LINE('',#555,#557);
#559=EDGE_CURVE('',#554,#546,#558,.T.);
#560=ORIENTED_EDGE('',*,*,#559,.F.);
#561=CARTESIAN_POINT('',(0.0,1.625000000000001,4.577000000000001));
#562=DIRECTION('',(0.0,0.0,-1.0));
#563=VECTOR('',#562,9.154000000000002);
#564=LINE('',#561,#563);
#565=EDGE_CURVE('',#554,#522,#564,.T.);
#566=ORIENTED_EDGE('',*,*,#565,.T.);
#567=ORIENTED_EDGE('',*,*,#527,.T.);
#568=EDGE_LOOP('',(#552,#560,#566,#567));
#569=FACE_OUTER_BOUND('',#568,.T.);
#570=ADVANCED_FACE('',(#569),#544,.T.);
#571=CARTESIAN_POINT('',(0.0,1.201999999999999,4.577000000000001));
#572=DIRECTION('',(-1.0,0.0,0.0));
#573=DIRECTION('',(0.0,-1.0,0.0));
#574=AXIS2_PLACEMENT_3D('',#571,#572,#573);
#575=CYLINDRICAL_SURFACE('',#574,0.423000000000000);
#576=CARTESIAN_POINT('',(-14.000000000000002,1.201999999999999,5.0));
#577=VERTEX_POINT('',#576);
#578=CARTESIAN_POINT('',(-14.000000000000002,1.201999999999999,4.577000000000001));
#579=DIRECTION('',(1.0,0.0,0.0));
#580=DIRECTION('',(0.0,-1.0,0.0));
#581=AXIS2_PLACEMENT_3D('',#578,#579,#580);
#582=CIRCLE('',#581,0.423000000000000);
#583=EDGE_CURVE('',#546,#577,#582,.T.);
#584=ORIENTED_EDGE('',*,*,#583,.T.);
#585=CARTESIAN_POINT('',(0.0,1.201999999999999,5.0));
#586=VERTEX_POINT('',#585);
#587=CARTESIAN_POINT('',(0.0,1.201999999999999,5.0));
#588=DIRECTION('',(-1.0,0.0,0.0));
#589=VECTOR('',#588,14.000000000000002);
#590=LINE('',#587,#589);
#591=EDGE_CURVE('',#586,#577,#590,.T.);
#592=ORIENTED_EDGE('',*,*,#591,.F.);
#593=CARTESIAN_POINT('',(0.0,1.201999999999999,4.577000000000001));
#594=DIRECTION('',(-1.0,0.0,0.0));
#595=DIRECTION('',(0.0,-1.0,0.0));
#596=AXIS2_PLACEMENT_3D('',#593,#594,#595);
#597=CIRCLE('',#596,0.423000000000000);
#598=EDGE_CURVE('',#586,#554,#597,.T.);
#599=ORIENTED_EDGE('',*,*,#598,.T.);
#600=ORIENTED_EDGE('',*,*,#559,.T.);
#601=EDGE_LOOP('',(#584,#592,#599,#600));
#602=FACE_OUTER_BOUND('',#601,.T.);
#603=ADVANCED_FACE('',(#602),#575,.T.);
#604=CARTESIAN_POINT('',(0.0,1.201999999999999,5.0));
#605=DIRECTION('',(0.0,0.0,1.0));
#606=DIRECTION('',(1.0,0.0,0.0));
#607=AXIS2_PLACEMENT_3D('',#604,#605,#606);
#608=PLANE('',#607);
#609=CARTESIAN_POINT('',(-14.000000000000002,1.201999999999999,5.0));
#610=DIRECTION('',(0.0,-1.0,0.0));
#611=VECTOR('',#610,2.827000000000001);
#612=LINE('',#609,#611);
#613=EDGE_CURVE('',#577,#326,#612,.T.);
#614=ORIENTED_EDGE('',*,*,#613,.T.);
#615=ORIENTED_EDGE('',*,*,#355,.F.);
#616=CARTESIAN_POINT('',(0.0,-1.625000000000002,4.999999999999999));
#617=DIRECTION('',(0.0,1.0,0.0));
#618=VECTOR('',#617,2.827000000000001);
#619=LINE('',#616,#618);
#620=EDGE_CURVE('',#344,#586,#619,.T.);
#621=ORIENTED_EDGE('',*,*,#620,.T.);
#622=ORIENTED_EDGE('',*,*,#591,.T.);
#623=EDGE_LOOP('',(#614,#615,#621,#622));
#624=FACE_OUTER_BOUND('',#623,.T.);
#625=ORIENTED_EDGE('',*,*,#174,.T.);
#626=EDGE_LOOP('',(#625));
#627=FACE_BOUND('',#626,.T.);
#628=ORIENTED_EDGE('',*,*,#223,.T.);
#629=EDGE_LOOP('',(#628));
#630=FACE_BOUND('',#629,.T.);
#631=ADVANCED_FACE('',(#624,#627,#630),#608,.T.);
#632=CARTESIAN_POINT('',(0.0,0.943614699268477,1.529835E-016));
#633=DIRECTION('',(1.0,0.0,0.0));
#634=DIRECTION('',(0.0,0.0,-1.0));
#635=AXIS2_PLACEMENT_3D('',#632,#633,#634);
#636=PLANE('',#635);
#637=ORIENTED_EDGE('',*,*,#620,.F.);
#638=ORIENTED_EDGE('',*,*,#349,.F.);
#639=ORIENTED_EDGE('',*,*,#385,.F.);
#640=ORIENTED_EDGE('',*,*,#424,.F.);
#641=ORIENTED_EDGE('',*,*,#455,.F.);
#642=ORIENTED_EDGE('',*,*,#479,.F.);
#643=ORIENTED_EDGE('',*,*,#257,.F.);
#644=ORIENTED_EDGE('',*,*,#501,.F.);
#645=ORIENTED_EDGE('',*,*,#303,.F.);
#646=ORIENTED_EDGE('',*,*,#534,.F.);
#647=ORIENTED_EDGE('',*,*,#565,.F.);
#648=ORIENTED_EDGE('',*,*,#598,.F.);
#649=EDGE_LOOP('',(#637,#638,#639,#640,#641,#642,#643,#644,#645,#646,#647,#648));
#650=FACE_OUTER_BOUND('',#649,.T.);
#651=ADVANCED_FACE('',(#650),#636,.T.);
#652=CARTESIAN_POINT('',(-14.000000000000002,0.943614699268476,1.365924E-017));
#653=DIRECTION('',(1.0,0.0,0.0));
#654=DIRECTION('',(0.0,0.0,-1.0));
#655=AXIS2_PLACEMENT_3D('',#652,#653,#654);
#656=PLANE('',#655);
#657=ORIENTED_EDGE('',*,*,#333,.F.);
#658=ORIENTED_EDGE('',*,*,#613,.F.);
#659=ORIENTED_EDGE('',*,*,#583,.F.);
#660=ORIENTED_EDGE('',*,*,#551,.F.);
#661=ORIENTED_EDGE('',*,*,#519,.F.);
#662=ORIENTED_EDGE('',*,*,#287,.F.);
#663=ORIENTED_EDGE('',*,*,#494,.F.);
#664=ORIENTED_EDGE('',*,*,#241,.F.);
#665=ORIENTED_EDGE('',*,*,#471,.F.);
#666=ORIENTED_EDGE('',*,*,#441,.F.);
#667=ORIENTED_EDGE('',*,*,#409,.F.);
#668=ORIENTED_EDGE('',*,*,#371,.F.);
#669=EDGE_LOOP('',(#657,#658,#659,#660,#661,#662,#663,#664,#665,#666,#667,#668));
#670=FACE_OUTER_BOUND('',#669,.T.);
#671=ADVANCED_FACE('',(#670),#656,.F.);
#672=CLOSED_SHELL('',(#101,#129,#178,#227,#273,#319,#359,#396,#429,#460,#484,#506,#539,#570,#603,#631,#651,#671));
#673=MANIFOLD_SOLID_BREP('',#672);
#674=COLOUR_RGB('Default',0.752941012382507,0.752941012382507,0.752941012382507);
#675=FILL_AREA_STYLE_COLOUR('Default',#674);
#676=FILL_AREA_STYLE('Default',(#675));
#677=SURFACE_STYLE_FILL_AREA(#676);
#678=SURFACE_SIDE_STYLE('Default',(#677));
#679=SURFACE_STYLE_USAGE(.BOTH.,#678);
#680=PRESENTATION_STYLE_ASSIGNMENT((#679));
#681=STYLED_ITEM('',(#680),#673);
#682=MECHANICAL_DESIGN_GEOMETRIC_PRESENTATION_REPRESENTATION('',(#681),#42);
#683=ADVANCED_BREP_SHAPE_REPRESENTATION('ABSR',(#673),#42);
#684=SHAPE_REPRESENTATION_RELATIONSHIP('SRR','None',#683,#47);
ENDSEC;
END-ISO-10303-21;
