ISO-10303-21;
HEADER;
/****************************************************************
 * Generated by software with PDE/Lib inside                    *
 * PDElib Version v51a, created Thu 12/14/2006                  *
 * International Technegroup Inc. (www.iti-oh.com)              *
 ****************************************************************/
FILE_DESCRIPTION((''),'2;1');
FILE_NAME('E:\\Eng\\Customer Service\\Drawings\\1401\\3D Files\\1401K\\1401K - Bracket.stp','2007-10-24T08:26:55',('trinas'),(''),'Autodesk Inventor 2008','Autodesk Inventor 2008','');
FILE_SCHEMA(('AUTOMOTIVE_DESIGN { 1 0 10303 214 1 1 1 1 }'));
ENDSEC;
DATA;
#5=APPLICATION_CONTEXT('automotive design');
#6=APPLICATION_PROTOCOL_DEFINITION('International Standard','automotive_design',2001,#5);
#7=PRODUCT_CONTEXT('',#5,'mechanical');
#8=PRODUCT('1401K - Bracket','1401K - Bracket',$,(#7));
#9=PRODUCT_RELATED_PRODUCT_CATEGORY('part',$,(#8));
#10=PRODUCT_DEFINITION_FORMATION('',$,#8);
#11=PRODUCT_DEFINITION_CONTEXT('part definition',#5,'design');
#12=PRODUCT_DEFINITION('',$,#10,#11);
#18=(NAMED_UNIT(*)PLANE_ANGLE_UNIT()SI_UNIT($,.RADIAN.));
#19=DIMENSIONAL_EXPONENTS(0.0,0.0,0.0,0.0,0.0,0.0,0.0);
#20=PLANE_ANGLE_MEASURE_WITH_UNIT(PLANE_ANGLE_MEASURE(0.017453292500000),#18);
#24=(CONVERSION_BASED_UNIT('DEGREE',#20)NAMED_UNIT(#19)PLANE_ANGLE_UNIT());
#28=(NAMED_UNIT(*)SI_UNIT($,.STERADIAN.)SOLID_ANGLE_UNIT());
#32=(LENGTH_UNIT()NAMED_UNIT(*)SI_UNIT(.CENTI.,.METRE.));
#33=DIMENSIONAL_EXPONENTS(1.0,0.0,0.0,0.0,0.0,0.0,0.0);
#34=LENGTH_MEASURE_WITH_UNIT(LENGTH_MEASURE(2.540000000000000),#32);
#38=(CONVERSION_BASED_UNIT('INCH',#34)LENGTH_UNIT()NAMED_UNIT(#33));
#40=UNCERTAINTY_MEASURE_WITH_UNIT(LENGTH_MEASURE(0.000393700787402),#38,'DISTANCE_ACCURACY_VALUE','');
#42=(GEOMETRIC_REPRESENTATION_CONTEXT(3)GLOBAL_UNCERTAINTY_ASSIGNED_CONTEXT((#40))GLOBAL_UNIT_ASSIGNED_CONTEXT((#24,#28,#38))REPRESENTATION_CONTEXT('None','None'));
#43=AXIS2_PLACEMENT_3D('',#44,#45,#46);
#44=CARTESIAN_POINT('',(0.0,0.0,0.0));
#45=DIRECTION('',(0.0,0.0,1.0));
#46=DIRECTION('',(1.0,0.0,0.0));
#47=SHAPE_REPRESENTATION('',(#43),#42);
#48=PRODUCT_DEFINITION_SHAPE('','',#12);
#49=SHAPE_DEFINITION_REPRESENTATION(#48,#47);
#55=(NAMED_UNIT(*)PLANE_ANGLE_UNIT()SI_UNIT($,.RADIAN.));
#56=DIMENSIONAL_EXPONENTS(0.0,0.0,0.0,0.0,0.0,0.0,0.0);
#57=PLANE_ANGLE_MEASURE_WITH_UNIT(PLANE_ANGLE_MEASURE(0.017453292500000),#55);
#61=(CONVERSION_BASED_UNIT('DEGREE',#57)NAMED_UNIT(#56)PLANE_ANGLE_UNIT());
#65=(NAMED_UNIT(*)SI_UNIT($,.STERADIAN.)SOLID_ANGLE_UNIT());
#69=(LENGTH_UNIT()NAMED_UNIT(*)SI_UNIT(.MILLI.,.METRE.));
#71=UNCERTAINTY_MEASURE_WITH_UNIT(LENGTH_MEASURE(0.000001000000000),#69,'DISTANCE_ACCURACY_VALUE','');
#73=(GEOMETRIC_REPRESENTATION_CONTEXT(3)GLOBAL_UNCERTAINTY_ASSIGNED_CONTEXT((#71))GLOBAL_UNIT_ASSIGNED_CONTEXT((#61,#65,#69))REPRESENTATION_CONTEXT('','3D'));
#74=CARTESIAN_POINT('',(0.090596470584200,0.090596470584200,-3.500000000000000));
#75=DIRECTION('',(0.0,0.0,1.0));
#76=DIRECTION('',(1.0,0.0,0.0));
#77=AXIS2_PLACEMENT_3D('',#74,#75,#76);
#78=PLANE('',#77);
#79=CARTESIAN_POINT('',(-0.054000000000000,-3.306546E-018,-3.500000000000000));
#80=VERTEX_POINT('',#79);
#81=CARTESIAN_POINT('',(9.919639E-018,-0.054000000000000,-3.500000000000000));
#82=VERTEX_POINT('',#81);
#83=CARTESIAN_POINT('',(0.0,0.0,-3.500000000000000));
#84=DIRECTION('',(0.0,0.0,1.0));
#85=DIRECTION('',(-1.0,0.0,0.0));
#86=AXIS2_PLACEMENT_3D('',#83,#84,#85);
#87=CIRCLE('',#86,0.054000000000000);
#88=EDGE_CURVE('',#80,#82,#87,.T.);
#89=ORIENTED_EDGE('',*,*,#88,.F.);
#90=CARTESIAN_POINT('',(-0.054000000000000,0.446000000000000,-3.500000000000000));
#91=VERTEX_POINT('',#90);
#92=CARTESIAN_POINT('',(-0.054000000000000,0.446000000000000,-3.500000000000000));
#93=DIRECTION('',(0.0,-1.0,0.0));
#94=VECTOR('',#93,0.446000000000000);
#95=LINE('',#92,#94);
#96=EDGE_CURVE('',#91,#80,#95,.T.);
#97=ORIENTED_EDGE('',*,*,#96,.F.);
#98=CARTESIAN_POINT('',(-0.018000000000000,0.446000000000000,-3.500000000000000));
#99=VERTEX_POINT('',#98);
#100=CARTESIAN_POINT('',(-0.018000000000000,0.446000000000000,-3.500000000000000));
#101=DIRECTION('',(-1.0,0.0,0.0));
#102=VECTOR('',#101,0.036000000000000);
#103=LINE('',#100,#102);
#104=EDGE_CURVE('',#99,#91,#103,.T.);
#105=ORIENTED_EDGE('',*,*,#104,.F.);
#106=CARTESIAN_POINT('',(-0.018000000000000,-5.510911E-018,-3.500000000000000));
#107=VERTEX_POINT('',#106);
#108=CARTESIAN_POINT('',(-0.018000000000000,-5.510911E-018,-3.500000000000000));
#109=DIRECTION('',(0.0,1.0,0.0));
#110=VECTOR('',#109,0.446000000000000);
#111=LINE('',#108,#110);
#112=EDGE_CURVE('',#107,#99,#111,.T.);
#113=ORIENTED_EDGE('',*,*,#112,.F.);
#114=CARTESIAN_POINT('',(8.817457E-018,-0.018000000000000,-3.500000000000000));
#115=VERTEX_POINT('',#114);
#116=CARTESIAN_POINT('',(0.0,0.0,-3.500000000000000));
#117=DIRECTION('',(0.0,0.0,-1.0));
#118=DIRECTION('',(1.0,0.0,0.0));
#119=AXIS2_PLACEMENT_3D('',#116,#117,#118);
#120=CIRCLE('',#119,0.018000000000000);
#121=EDGE_CURVE('',#115,#107,#120,.T.);
#122=ORIENTED_EDGE('',*,*,#121,.F.);
#123=CARTESIAN_POINT('',(0.446000000000000,-0.018000000000000,-3.500000000000000));
#124=VERTEX_POINT('',#123);
#125=CARTESIAN_POINT('',(0.446000000000000,-0.018000000000000,-3.500000000000000));
#126=DIRECTION('',(-1.0,0.0,0.0));
#127=VECTOR('',#126,0.446000000000000);
#128=LINE('',#125,#127);
#129=EDGE_CURVE('',#124,#115,#128,.T.);
#130=ORIENTED_EDGE('',*,*,#129,.F.);
#131=CARTESIAN_POINT('',(0.446000000000000,-0.054000000000000,-3.500000000000000));
#132=VERTEX_POINT('',#131);
#133=CARTESIAN_POINT('',(0.446000000000000,-0.054000000000000,-3.500000000000000));
#134=DIRECTION('',(0.0,1.0,0.0));
#135=VECTOR('',#134,0.036000000000000);
#136=LINE('',#133,#135);
#137=EDGE_CURVE('',#132,#124,#136,.T.);
#138=ORIENTED_EDGE('',*,*,#137,.F.);
#139=CARTESIAN_POINT('',(9.919639E-018,-0.054000000000000,-3.500000000000000));
#140=DIRECTION('',(1.0,0.0,0.0));
#141=VECTOR('',#140,0.446000000000000);
#142=LINE('',#139,#141);
#143=EDGE_CURVE('',#82,#132,#142,.T.);
#144=ORIENTED_EDGE('',*,*,#143,.F.);
#145=EDGE_LOOP('',(#89,#97,#105,#113,#122,#130,#138,#144));
#146=FACE_OUTER_BOUND('',#145,.T.);
#147=ADVANCED_FACE('',(#146),#78,.F.);
#148=CARTESIAN_POINT('',(-0.054000000000000,0.446000000000000,0.0));
#149=DIRECTION('',(0.0,1.0,0.0));
#150=DIRECTION('',(0.0,0.0,1.0));
#151=AXIS2_PLACEMENT_3D('',#148,#149,#150);
#152=PLANE('',#151);
#153=CARTESIAN_POINT('',(-0.054000000000000,0.446000000000000,3.500000000000000));
#154=VERTEX_POINT('',#153);
#155=CARTESIAN_POINT('',(-0.018000000000000,0.446000000000000,3.500000000000000));
#156=VERTEX_POINT('',#155);
#157=CARTESIAN_POINT('',(-0.054000000000000,0.446000000000000,3.500000000000000));
#158=DIRECTION('',(1.0,0.0,0.0));
#159=VECTOR('',#158,0.036000000000000);
#160=LINE('',#157,#159);
#161=EDGE_CURVE('',#154,#156,#160,.T.);
#162=ORIENTED_EDGE('',*,*,#161,.T.);
#163=CARTESIAN_POINT('',(-0.018000000000000,0.446000000000000,-3.500000000000000));
#164=DIRECTION('',(0.0,0.0,1.0));
#165=VECTOR('',#164,7.000000000000001);
#166=LINE('',#163,#165);
#167=EDGE_CURVE('',#99,#156,#166,.T.);
#168=ORIENTED_EDGE('',*,*,#167,.F.);
#169=ORIENTED_EDGE('',*,*,#104,.T.);
#170=CARTESIAN_POINT('',(-0.054000000000000,0.446000000000000,3.500000000000000));
#171=DIRECTION('',(0.0,0.0,-1.0));
#172=VECTOR('',#171,7.000000000000001);
#173=LINE('',#170,#172);
#174=EDGE_CURVE('',#154,#91,#173,.T.);
#175=ORIENTED_EDGE('',*,*,#174,.F.);
#176=EDGE_LOOP('',(#162,#168,#169,#175));
#177=FACE_OUTER_BOUND('',#176,.T.);
#178=ADVANCED_FACE('',(#177),#152,.T.);
#179=CARTESIAN_POINT('',(-0.018000000000000,0.446000000000000,0.0));
#180=DIRECTION('',(1.0,0.0,0.0));
#181=DIRECTION('',(0.0,0.0,-1.0));
#182=AXIS2_PLACEMENT_3D('',#179,#180,#181);
#183=PLANE('',#182);
#184=CARTESIAN_POINT('',(-0.018000000000000,-5.510911E-018,3.500000000000000));
#185=VERTEX_POINT('',#184);
#186=CARTESIAN_POINT('',(-0.018000000000000,0.446000000000000,3.500000000000000));
#187=DIRECTION('',(0.0,-1.0,0.0));
#188=VECTOR('',#187,0.446000000000000);
#189=LINE('',#186,#188);
#190=EDGE_CURVE('',#156,#185,#189,.T.);
#191=ORIENTED_EDGE('',*,*,#190,.T.);
#192=CARTESIAN_POINT('',(-0.018000000000000,-5.510911E-018,-3.500000000000000));
#193=DIRECTION('',(0.0,0.0,1.0));
#194=VECTOR('',#193,7.000000000000001);
#195=LINE('',#192,#194);
#196=EDGE_CURVE('',#107,#185,#195,.T.);
#197=ORIENTED_EDGE('',*,*,#196,.F.);
#198=ORIENTED_EDGE('',*,*,#112,.T.);
#199=ORIENTED_EDGE('',*,*,#167,.T.);
#200=EDGE_LOOP('',(#191,#197,#198,#199));
#201=FACE_OUTER_BOUND('',#200,.T.);
#202=ADVANCED_FACE('',(#201),#183,.T.);
#203=CARTESIAN_POINT('',(0.0,0.0,0.0));
#204=DIRECTION('',(0.0,0.0,1.0));
#205=DIRECTION('',(1.0,0.0,0.0));
#206=AXIS2_PLACEMENT_3D('',#203,#204,#205);
#207=CYLINDRICAL_SURFACE('',#206,0.018000000000000);
#208=CARTESIAN_POINT('',(8.817457E-018,-0.018000000000000,3.500000000000000));
#209=VERTEX_POINT('',#208);
#210=CARTESIAN_POINT('',(0.0,0.0,3.500000000000000));
#211=DIRECTION('',(0.0,0.0,1.0));
#212=DIRECTION('',(1.0,0.0,0.0));
#213=AXIS2_PLACEMENT_3D('',#210,#211,#212);
#214=CIRCLE('',#213,0.018000000000000);
#215=EDGE_CURVE('',#185,#209,#214,.T.);
#216=ORIENTED_EDGE('',*,*,#215,.T.);
#217=CARTESIAN_POINT('',(8.817457E-018,-0.018000000000000,-3.500000000000000));
#218=DIRECTION('',(0.0,0.0,1.0));
#219=VECTOR('',#218,7.000000000000001);
#220=LINE('',#217,#219);
#221=EDGE_CURVE('',#115,#209,#220,.T.);
#222=ORIENTED_EDGE('',*,*,#221,.F.);
#223=ORIENTED_EDGE('',*,*,#121,.T.);
#224=ORIENTED_EDGE('',*,*,#196,.T.);
#225=EDGE_LOOP('',(#216,#222,#223,#224));
#226=FACE_OUTER_BOUND('',#225,.T.);
#227=ADVANCED_FACE('',(#226),#207,.F.);
#228=CARTESIAN_POINT('',(8.817457E-018,-0.018000000000000,0.0));
#229=DIRECTION('',(0.0,1.0,0.0));
#230=DIRECTION('',(0.0,0.0,1.0));
#231=AXIS2_PLACEMENT_3D('',#228,#229,#230);
#232=PLANE('',#231);
#233=CARTESIAN_POINT('',(0.446000000000000,-0.018000000000000,3.500000000000000));
#234=VERTEX_POINT('',#233);
#235=CARTESIAN_POINT('',(8.817457E-018,-0.018000000000000,3.500000000000000));
#236=DIRECTION('',(1.0,0.0,0.0));
#237=VECTOR('',#236,0.446000000000000);
#238=LINE('',#235,#237);
#239=EDGE_CURVE('',#209,#234,#238,.T.);
#240=ORIENTED_EDGE('',*,*,#239,.T.);
#241=CARTESIAN_POINT('',(0.446000000000000,-0.018000000000000,-3.500000000000000));
#242=DIRECTION('',(0.0,0.0,1.0));
#243=VECTOR('',#242,7.000000000000001);
#244=LINE('',#241,#243);
#245=EDGE_CURVE('',#124,#234,#244,.T.);
#246=ORIENTED_EDGE('',*,*,#245,.F.);
#247=ORIENTED_EDGE('',*,*,#129,.T.);
#248=ORIENTED_EDGE('',*,*,#221,.T.);
#249=EDGE_LOOP('',(#240,#246,#247,#248));
#250=FACE_OUTER_BOUND('',#249,.T.);
#251=ADVANCED_FACE('',(#250),#232,.T.);
#252=CARTESIAN_POINT('',(0.446000000000000,-0.018000000000000,0.0));
#253=DIRECTION('',(1.0,0.0,0.0));
#254=DIRECTION('',(0.0,0.0,-1.0));
#255=AXIS2_PLACEMENT_3D('',#252,#253,#254);
#256=PLANE('',#255);
#257=CARTESIAN_POINT('',(0.446000000000000,-0.054000000000000,3.500000000000000));
#258=VERTEX_POINT('',#257);
#259=CARTESIAN_POINT('',(0.446000000000000,-0.018000000000000,3.500000000000000));
#260=DIRECTION('',(0.0,-1.0,0.0));
#261=VECTOR('',#260,0.036000000000000);
#262=LINE('',#259,#261);
#263=EDGE_CURVE('',#234,#258,#262,.T.);
#264=ORIENTED_EDGE('',*,*,#263,.T.);
#265=CARTESIAN_POINT('',(0.446000000000000,-0.054000000000000,-3.500000000000000));
#266=DIRECTION('',(0.0,0.0,1.0));
#267=VECTOR('',#266,7.000000000000001);
#268=LINE('',#265,#267);
#269=EDGE_CURVE('',#132,#258,#268,.T.);
#270=ORIENTED_EDGE('',*,*,#269,.F.);
#271=ORIENTED_EDGE('',*,*,#137,.T.);
#272=ORIENTED_EDGE('',*,*,#245,.T.);
#273=EDGE_LOOP('',(#264,#270,#271,#272));
#274=FACE_OUTER_BOUND('',#273,.T.);
#275=ADVANCED_FACE('',(#274),#256,.T.);
#276=CARTESIAN_POINT('',(0.446000000000000,-0.054000000000000,0.0));
#277=DIRECTION('',(0.0,-1.0,0.0));
#278=DIRECTION('',(0.0,0.0,-1.0));
#279=AXIS2_PLACEMENT_3D('',#276,#277,#278);
#280=PLANE('',#279);
#281=CARTESIAN_POINT('',(9.919639E-018,-0.054000000000000,3.500000000000000));
#282=VERTEX_POINT('',#281);
#283=CARTESIAN_POINT('',(0.446000000000000,-0.054000000000000,3.500000000000000));
#284=DIRECTION('',(-1.0,0.0,0.0));
#285=VECTOR('',#284,0.446000000000000);
#286=LINE('',#283,#285);
#287=EDGE_CURVE('',#258,#282,#286,.T.);
#288=ORIENTED_EDGE('',*,*,#287,.T.);
#289=CARTESIAN_POINT('',(9.919639E-018,-0.054000000000000,-3.500000000000000));
#290=DIRECTION('',(0.0,0.0,1.0));
#291=VECTOR('',#290,7.000000000000001);
#292=LINE('',#289,#291);
#293=EDGE_CURVE('',#82,#282,#292,.T.);
#294=ORIENTED_EDGE('',*,*,#293,.F.);
#295=ORIENTED_EDGE('',*,*,#143,.T.);
#296=ORIENTED_EDGE('',*,*,#269,.T.);
#297=EDGE_LOOP('',(#288,#294,#295,#296));
#298=FACE_OUTER_BOUND('',#297,.T.);
#299=ADVANCED_FACE('',(#298),#280,.T.);
#300=CARTESIAN_POINT('',(0.0,0.0,0.0));
#301=DIRECTION('',(0.0,0.0,1.0));
#302=DIRECTION('',(-1.0,0.0,0.0));
#303=AXIS2_PLACEMENT_3D('',#300,#301,#302);
#304=CYLINDRICAL_SURFACE('',#303,0.054000000000000);
#305=CARTESIAN_POINT('',(-0.054000000000000,-3.306546E-018,3.500000000000000));
#306=VERTEX_POINT('',#305);
#307=CARTESIAN_POINT('',(0.0,0.0,3.500000000000000));
#308=DIRECTION('',(0.0,0.0,-1.0));
#309=DIRECTION('',(-1.0,0.0,0.0));
#310=AXIS2_PLACEMENT_3D('',#307,#308,#309);
#311=CIRCLE('',#310,0.054000000000000);
#312=EDGE_CURVE('',#282,#306,#311,.T.);
#313=ORIENTED_EDGE('',*,*,#312,.T.);
#314=CARTESIAN_POINT('',(-0.054000000000000,-3.306546E-018,-3.500000000000000));
#315=DIRECTION('',(0.0,0.0,1.0));
#316=VECTOR('',#315,7.000000000000001);
#317=LINE('',#314,#316);
#318=EDGE_CURVE('',#80,#306,#317,.T.);
#319=ORIENTED_EDGE('',*,*,#318,.F.);
#320=ORIENTED_EDGE('',*,*,#88,.T.);
#321=ORIENTED_EDGE('',*,*,#293,.T.);
#322=EDGE_LOOP('',(#313,#319,#320,#321));
#323=FACE_OUTER_BOUND('',#322,.T.);
#324=ADVANCED_FACE('',(#323),#304,.T.);
#325=CARTESIAN_POINT('',(-0.054000000000000,-3.306546E-018,0.0));
#326=DIRECTION('',(-1.0,0.0,0.0));
#327=DIRECTION('',(0.0,0.0,1.0));
#328=AXIS2_PLACEMENT_3D('',#325,#326,#327);
#329=PLANE('',#328);
#330=CARTESIAN_POINT('',(-0.054000000000000,-3.306546E-018,3.500000000000000));
#331=DIRECTION('',(0.0,1.0,0.0));
#332=VECTOR('',#331,0.446000000000000);
#333=LINE('',#330,#332);
#334=EDGE_CURVE('',#306,#154,#333,.T.);
#335=ORIENTED_EDGE('',*,*,#334,.T.);
#336=ORIENTED_EDGE('',*,*,#174,.T.);
#337=ORIENTED_EDGE('',*,*,#96,.T.);
#338=ORIENTED_EDGE('',*,*,#318,.T.);
#339=EDGE_LOOP('',(#335,#336,#337,#338));
#340=FACE_OUTER_BOUND('',#339,.T.);
#341=ADVANCED_FACE('',(#340),#329,.T.);
#342=CARTESIAN_POINT('',(0.090596470584200,0.090596470584200,3.500000000000000));
#343=DIRECTION('',(0.0,0.0,1.0));
#344=DIRECTION('',(1.0,0.0,0.0));
#345=AXIS2_PLACEMENT_3D('',#342,#343,#344);
#346=PLANE('',#345);
#347=ORIENTED_EDGE('',*,*,#161,.F.);
#348=ORIENTED_EDGE('',*,*,#334,.F.);
#349=ORIENTED_EDGE('',*,*,#312,.F.);
#350=ORIENTED_EDGE('',*,*,#287,.F.);
#351=ORIENTED_EDGE('',*,*,#263,.F.);
#352=ORIENTED_EDGE('',*,*,#239,.F.);
#353=ORIENTED_EDGE('',*,*,#215,.F.);
#354=ORIENTED_EDGE('',*,*,#190,.F.);
#355=EDGE_LOOP('',(#347,#348,#349,#350,#351,#352,#353,#354));
#356=FACE_OUTER_BOUND('',#355,.T.);
#357=ADVANCED_FACE('',(#356),#346,.T.);
#358=CLOSED_SHELL('',(#147,#178,#202,#227,#251,#275,#299,#324,#341,#357));
#359=MANIFOLD_SOLID_BREP('',#358);
#360=COLOUR_RGB('Default',0.752941012382507,0.752941012382507,0.752941012382507);
#361=FILL_AREA_STYLE_COLOUR('Default',#360);
#362=FILL_AREA_STYLE('Default',(#361));
#363=SURFACE_STYLE_FILL_AREA(#362);
#364=SURFACE_SIDE_STYLE('Default',(#363));
#365=SURFACE_STYLE_USAGE(.BOTH.,#364);
#366=PRESENTATION_STYLE_ASSIGNMENT((#365));
#367=STYLED_ITEM('',(#366),#359);
#368=MECHANICAL_DESIGN_GEOMETRIC_PRESENTATION_REPRESENTATION('',(#367),#42);
#369=ADVANCED_BREP_SHAPE_REPRESENTATION('ABSR',(#359),#42);
#370=SHAPE_REPRESENTATION_RELATIONSHIP('SRR','None',#369,#47);
ENDSEC;
END-ISO-10303-21;
