                                                                        S      1
,,20H1401K - Bottom Cover,27HNo Iges File Name specified,23HAutoDesk InvG      1
entor R12.0,37HAutoDesk Inventor Iges Exporter R12.0,32,38,6,99,15,20H14G      2
01K - Bottom Cover,1.0D0,1,2HIN,1,.08D0,15H20071024.082626,             G      3
3.93700787401575D-4,10000.0D0,,,11,0,,;                                 G      4
     406       1       0       0       1       0       0       000000000D      1
     406       0       0       1       3                               0D      2
     128       2       0       0       0       0       0       000010000D      3
     128       0       0      22       0                               0D      4
     502      24       0       0       0       0       0       000010000D      5
     502       0       0      20       1                               0D      6
     110      44       0       0       0       0       0       000010000D      7
     110       0       0       2       0                               0D      8
     504      46       0       0       0       0       0       000010001D      9
     504       0       0      13       1                               0D     10
     100      59       0       0       0       0      13       000010000D     11
     100       0       0       2       0                               0D     12
     124      61       0       0       0       0       0       000000000D     13
     124       0       0       2       0                               0D     14
     110      63       0       0       0       0       0       000010000D     15
     110       0       0       2       0                               0D     16
     100      65       0       0       0       0      19       000010000D     17
     100       0       0       2       0                               0D     18
     124      67       0       0       0       0       0       000000000D     19
     124       0       0       2       0                               0D     20
     508      69       0       0       0       0       0       000010000D     21
     508       0       0       1       1                               0D     22
     510      70       0       0       0       0       0       000010001D     23
     510       0       0       1       1                               0D     24
     128      71       0       0       0       0       0       000010000D     25
     128       0       0      23       0                               0D     26
     110      94       0       0       0       0       0       000010000D     27
     110       0       0       2       0                               0D     28
     100      96       0       0       0       0      31       000010000D     29
     100       0       0       2       0                               0D     30
     124      98       0       0       0       0       0       000000000D     31
     124       0       0       2       0                               0D     32
     110     100       0       0       0       0       0       000010000D     33
     110       0       0       2       0                               0D     34
     100     102       0       0       0       0      37       000010000D     35
     100       0       0       2       0                               0D     36
     124     104       0       0       0       0       0       000000000D     37
     124       0       0       2       0                               0D     38
     508     106       0       0       0       0       0       000010000D     39
     508       0       0       1       1                               0D     40
     510     107       0       0       0       0       0       000010001D     41
     510       0       0       1       1                               0D     42
     120     108       0       0       0       0       0       000010000D     43
     120       0       0       1       0                               0D     44
     110     109       0       0       0       0       0       000010000D     45
     110       0       0       2       0                               0D     46
     110     111       0       0       0       0       0       001010000D     47
     110       0       0       2       0                               0D     48
     110     113       0       0       0       0       0       000010000D     49
     110       0       0       2       0                               0D     50
     100     115       0       0       0       0      53       000010000D     51
     100       0       0       2       0                               0D     52
     124     117       0       0       0       0       0       000000000D     53
     124       0       0       2       0                               0D     54
     110     119       0       0       0       0       0       000010000D     55
     110       0       0       2       0                               0D     56
     100     121       0       0       0       0      59       000010000D     57
     100       0       0       2       0                               0D     58
     124     123       0       0       0       0       0       000000000D     59
     124       0       0       2       0                               0D     60
     508     125       0       0       0       0       0       000010000D     61
     508       0       0       1       1                               0D     62
     510     126       0       0       0       0       0       000010001D     63
     510       0       0       1       1                               0D     64
     120     127       0       0       0       0       0       000010000D     65
     120       0       0       1       0                               0D     66
     110     128       0       0       0       0       0       000010000D     67
     110       0       0       2       0                               0D     68
     110     130       0       0       0       0       0       001010000D     69
     110       0       0       2       0                               0D     70
     110     132       0       0       0       0       0       000010000D     71
     110       0       0       2       0                               0D     72
     100     134       0       0       0       0      75       000010000D     73
     100       0       0       2       0                               0D     74
     124     136       0       0       0       0       0       000000000D     75
     124       0       0       2       0                               0D     76
     110     138       0       0       0       0       0       000010000D     77
     110       0       0       2       0                               0D     78
     100     140       0       0       0       0      81       000010000D     79
     100       0       0       2       0                               0D     80
     124     142       0       0       0       0       0       000000000D     81
     124       0       0       2       0                               0D     82
     508     144       0       0       0       0       0       000010000D     83
     508       0       0       1       1                               0D     84
     510     145       0       0       0       0       0       000010001D     85
     510       0       0       1       1                               0D     86
     120     146       0       0       0       0       0       000010000D     87
     120       0       0       1       0                               0D     88
     110     147       0       0       0       0       0       000010000D     89
     110       0       0       2       0                               0D     90
     110     149       0       0       0       0       0       001010000D     91
     110       0       0       2       0                               0D     92
     100     151       0       0       0       0      81       000010000D     93
     100       0       0       2       0                               0D     94
     100     153       0       0       0       0      75       000010000D     95
     100       0       0       2       0                               0D     96
     508     155       0       0       0       0       0       000010000D     97
     508       0       0       1       1                               0D     98
     510     156       0       0       0       0       0       000010001D     99
     510       0       0       1       1                               0D    100
     120     157       0       0       0       0       0       000010000D    101
     120       0       0       1       0                               0D    102
     110     158       0       0       0       0       0       000010000D    103
     110       0       0       2       0                               0D    104
     110     160       0       0       0       0       0       001010000D    105
     110       0       0       2       0                               0D    106
     100     162       0       0       0       0      59       000010000D    107
     100       0       0       2       0                               0D    108
     100     164       0       0       0       0      53       000010000D    109
     100       0       0       2       0                               0D    110
     508     166       0       0       0       0       0       000010000D    111
     508       0       0       1       1                               0D    112
     510     167       0       0       0       0       0       000010001D    113
     510       0       0       1       1                               0D    114
     128     168       0       0       0       0       0       000010000D    115
     128       0       0      23       0                               0D    116
     100     191       0       0       0       0      37       000010000D    117
     100       0       0       2       0                               0D    118
     100     193       0       0       0       0      31       000010000D    119
     100       0       0       2       0                               0D    120
     508     195       0       0       0       0       0       000010000D    121
     508       0       0       1       1                               0D    122
     510     196       0       0       0       0       0       000010001D    123
     510       0       0       1       1                               0D    124
     128     197       0       0       0       0       0       000010000D    125
     128       0       0      22       0                               0D    126
     100     219       0       0       0       0      19       000010000D    127
     100       0       0       2       0                               0D    128
     100     221       0       0       0       0      13       000010000D    129
     100       0       0       2       0                               0D    130
     508     223       0       0       0       0       0       000010000D    131
     508       0       0       1       1                               0D    132
     510     224       0       0       0       0       0       000010001D    133
     510       0       0       1       1                               0D    134
     116     225       0       0       0       0       0       000010000D    135
     116       0       0       1       0                               0D    136
     123     226       0       0       0       0       0       000010200D    137
     123       0       0       1       0                               0D    138
     190     227       0       0       0       0       0       000010000D    139
     190       0       0       1       1                               0D    140
     123     228       0       0       0       0       0       000010200D    141
     123       0       0       1       0                               0D    142
     110     229       0       0       0       0       0       000010000D    143
     110       0       0       1       0                               0D    144
     110     230       0       0       0       0       0       000010000D    145
     110       0       0       1       0                               0D    146
     110     231       0       0       0       0       0       000010000D    147
     110       0       0       1       0                               0D    148
     110     232       0       0       0       0       0       000010000D    149
     110       0       0       1       0                               0D    150
     508     233       0       0       0       0       0       000010000D    151
     508       0       0       1       1                               0D    152
     508     234       0       0       0       0       0       000010000D    153
     508       0       0       1       1                               0D    154
     508     235       0       0       0       0       0       000010000D    155
     508       0       0       1       1                               0D    156
     510     236       0       0       0       0       0       000010001D    157
     510       0       0       1       1                               0D    158
     116     237       0       0       0       0       0       000010000D    159
     116       0       0       1       0                               0D    160
     123     238       0       0       0       0       0       000010200D    161
     123       0       0       1       0                               0D    162
     190     239       0       0       0       0       0       000010000D    163
     190       0       0       1       1                               0D    164
     123     240       0       0       0       0       0       000010200D    165
     123       0       0       1       0                               0D    166
     110     241       0       0       0       0       0       000010000D    167
     110       0       0       1       0                               0D    168
     110     242       0       0       0       0       0       000010000D    169
     110       0       0       1       0                               0D    170
     110     243       0       0       0       0       0       000010000D    171
     110       0       0       1       0                               0D    172
     110     244       0       0       0       0       0       000010000D    173
     110       0       0       1       0                               0D    174
     508     245       0       0       0       0       0       000010000D    175
     508       0       0       1       1                               0D    176
     508     246       0       0       0       0       0       000010000D    177
     508       0       0       1       1                               0D    178
     508     247       0       0       0       0       0       000010000D    179
     508       0       0       1       1                               0D    180
     510     248       0       0       0       0       0       000010001D    181
     510       0       0       1       1                               0D    182
     116     249       0       0       0       0       0       000010000D    183
     116       0       0       1       0                               0D    184
     123     250       0       0       0       0       0       000010200D    185
     123       0       0       1       0                               0D    186
     190     251       0       0       0       0       0       000010000D    187
     190       0       0       1       1                               0D    188
     123     252       0       0       0       0       0       000010200D    189
     123       0       0       1       0                               0D    190
     110     253       0       0       0       0       0       000010000D    191
     110       0       0       1       0                               0D    192
     110     254       0       0       0       0       0       000010000D    193
     110       0       0       1       0                               0D    194
     110     255       0       0       0       0       0       000010000D    195
     110       0       0       1       0                               0D    196
     110     256       0       0       0       0       0       000010000D    197
     110       0       0       1       0                               0D    198
     508     257       0       0       0       0       0       000010000D    199
     508       0       0       1       1                               0D    200
     510     258       0       0       0       0       0       000010001D    201
     510       0       0       1       1                               0D    202
     116     259       0       0       0       0       0       000010000D    203
     116       0       0       1       0                               0D    204
     123     260       0       0       0       0       0       000010200D    205
     123       0       0       1       0                               0D    206
     190     261       0       0       0       0       0       000010000D    207
     190       0       0       1       1                               0D    208
     123     262       0       0       0       0       0       000010200D    209
     123       0       0       1       0                               0D    210
     110     263       0       0       0       0       0       000010000D    211
     110       0       0       1       0                               0D    212
     110     264       0       0       0       0       0       000010000D    213
     110       0       0       1       0                               0D    214
     110     265       0       0       0       0       0       000010000D    215
     110       0       0       1       0                               0D    216
     508     266       0       0       0       0       0       000010000D    217
     508       0       0       1       1                               0D    218
     508     267       0       0       0       0       0       000010000D    219
     508       0       0       1       1                               0D    220
     508     268       0       0       0       0       0       000010000D    221
     508       0       0       1       1                               0D    222
     510     269       0       0       0       0       0       000010001D    223
     510       0       0       1       1                               0D    224
     120     270       0       0       0       0       0       000010000D    225
     120       0       0       1       0                               0D    226
     110     271       0       0       0       0       0       000010000D    227
     110       0       0       1       0                               0D    228
     110     272       0       0       0       0       0       001010000D    229
     110       0       0       1       0                               0D    230
     100     273       0       0       0       0     233       000010000D    231
     100       0       0       2       0                               0D    232
     124     275       0       0       0       0       0       000000000D    233
     124       0       0       2       0                               0D    234
     110     277       0       0       0       0       0       000010000D    235
     110       0       0       1       0                               0D    236
     100     278       0       0       0       0     239       000010000D    237
     100       0       0       1       0                               0D    238
     124     279       0       0       0       0       0       000000000D    239
     124       0       0       2       0                               0D    240
     508     281       0       0       0       0       0       000010000D    241
     508       0       0       1       1                               0D    242
     510     282       0       0       0       0       0       000010001D    243
     510       0       0       1       1                               0D    244
     116     283       0       0       0       0       0       000010000D    245
     116       0       0       1       0                               0D    246
     123     284       0       0       0       0       0       000010200D    247
     123       0       0       1       0                               0D    248
     190     285       0       0       0       0       0       000010000D    249
     190       0       0       1       1                               0D    250
     123     286       0       0       0       0       0       000010200D    251
     123       0       0       1       0                               0D    252
     110     287       0       0       0       0       0       000010000D    253
     110       0       0       1       0                               0D    254
     110     288       0       0       0       0       0       000010000D    255
     110       0       0       1       0                               0D    256
     110     289       0       0       0       0       0       000010000D    257
     110       0       0       1       0                               0D    258
     508     290       0       0       0       0       0       000010000D    259
     508       0       0       1       1                               0D    260
     510     291       0       0       0       0       0       000010001D    261
     510       0       0       1       1                               0D    262
     120     292       0       0       0       0       0       000010000D    263
     120       0       0       1       0                               0D    264
     110     293       0       0       0       0       0       000010000D    265
     110       0       0       1       0                               0D    266
     110     294       0       0       0       0       0       001010000D    267
     110       0       0       1       0                               0D    268
     100     295       0       0       0       0     271       000010000D    269
     100       0       0       2       0                               0D    270
     124     297       0       0       0       0       0       000000000D    271
     124       0       0       2       0                               0D    272
     100     299       0       0       0       0     275       000010000D    273
     100       0       0       2       0                               0D    274
     124     301       0       0       0       0       0       000000000D    275
     124       0       0       2       0                               0D    276
     508     303       0       0       0       0       0       000010000D    277
     508       0       0       1       1                               0D    278
     510     304       0       0       0       0       0       000010001D    279
     510       0       0       1       1                               0D    280
     116     305       0       0       0       0       0       000010000D    281
     116       0       0       1       0                               0D    282
     123     306       0       0       0       0       0       000010200D    283
     123       0       0       1       0                               0D    284
     190     307       0       0       0       0       0       000010000D    285
     190       0       0       1       1                               0D    286
     123     308       0       0       0       0       0       000010200D    287
     123       0       0       1       0                               0D    288
     110     309       0       0       0       0       0       000010000D    289
     110       0       0       1       0                               0D    290
     110     310       0       0       0       0       0       000010000D    291
     110       0       0       1       0                               0D    292
     508     311       0       0       0       0       0       000010000D    293
     508       0       0       1       1                               0D    294
     510     312       0       0       0       0       0       000010001D    295
     510       0       0       1       1                               0D    296
     116     313       0       0       0       0       0       000010000D    297
     116       0       0       1       0                               0D    298
     123     314       0       0       0       0       0       000010200D    299
     123       0       0       1       0                               0D    300
     192     315       0       0       0       0       0       000010000D    301
     192       0       0       1       1                               0D    302
     123     316       0       0       0       0       0       000010200D    303
     123       0       0       1       0                               0D    304
     100     317       0       0       0       0     307       000010000D    305
     100       0       0       2       0                               0D    306
     124     319       0       0       0       0       0       000000000D    307
     124       0       0       2       0                               0D    308
     110     321       0       0       0       0       0       000010000D    309
     110       0       0       1       0                               0D    310
     100     322       0       0       0       0     313       000010000D    311
     100       0       0       2       0                               0D    312
     124     324       0       0       0       0       0       000000000D    313
     124       0       0       2       0                               0D    314
     508     326       0       0       0       0       0       000010000D    315
     508       0       0       1       1                               0D    316
     510     327       0       0       0       0       0       000010001D    317
     510       0       0       1       1                               0D    318
     116     328       0       0       0       0       0       000010000D    319
     116       0       0       1       0                               0D    320
     123     329       0       0       0       0       0       000010200D    321
     123       0       0       1       0                               0D    322
     190     330       0       0       0       0       0       000010000D    323
     190       0       0       1       1                               0D    324
     123     331       0       0       0       0       0       000010200D    325
     123       0       0       1       0                               0D    326
     110     332       0       0       0       0       0       000010000D    327
     110       0       0       1       0                               0D    328
     110     333       0       0       0       0       0       000010000D    329
     110       0       0       1       0                               0D    330
     110     334       0       0       0       0       0       000010000D    331
     110       0       0       1       0                               0D    332
     508     335       0       0       0       0       0       000010000D    333
     508       0       0       1       1                               0D    334
     510     336       0       0       0       0       0       000010001D    335
     510       0       0       1       1                               0D    336
     116     337       0       0       0       0       0       000010000D    337
     116       0       0       1       0                               0D    338
     123     338       0       0       0       0       0       000010200D    339
     123       0       0       1       0                               0D    340
     192     339       0       0       0       0       0       000010000D    341
     192       0       0       1       1                               0D    342
     123     340       0       0       0       0       0       000010200D    343
     123       0       0       1       0                               0D    344
     100     341       0       0       0       0     347       000010000D    345
     100       0       0       2       0                               0D    346
     124     343       0       0       0       0       0       000000000D    347
     124       0       0       2       0                               0D    348
     110     345       0       0       0       0       0       000010000D    349
     110       0       0       1       0                               0D    350
     100     346       0       0       0       0     353       000010000D    351
     100       0       0       2       0                               0D    352
     124     348       0       0       0       0       0       000000000D    353
     124       0       0       2       0                               0D    354
     508     350       0       0       0       0       0       000010000D    355
     508       0       0       1       1                               0D    356
     510     351       0       0       0       0       0       000010001D    357
     510       0       0       1       1                               0D    358
     116     352       0       0       0       0       0       000010000D    359
     116       0       0       1       0                               0D    360
     123     353       0       0       0       0       0       000010200D    361
     123       0       0       1       0                               0D    362
     190     354       0       0       0       0       0       000010000D    363
     190       0       0       1       1                               0D    364
     123     355       0       0       0       0       0       000010200D    365
     123       0       0       1       0                               0D    366
     110     356       0       0       0       0       0       000010000D    367
     110       0       0       1       0                               0D    368
     110     357       0       0       0       0       0       000010000D    369
     110       0       0       1       0                               0D    370
     508     358       0       0       0       0       0       000010000D    371
     508       0       0       1       1                               0D    372
     508     359       0       0       0       0       0       000010000D    373
     508       0       0       1       1                               0D    374
     508     360       0       0       0       0       0       000010000D    375
     508       0       0       1       1                               0D    376
     510     361       0       0       0       0       0       000010001D    377
     510       0       0       1       1                               0D    378
     116     362       0       0       0       0       0       000010000D    379
     116       0       0       1       0                               0D    380
     123     363       0       0       0       0       0       000010200D    381
     123       0       0       1       0                               0D    382
     190     364       0       0       0       0       0       000010000D    383
     190       0       0       1       1                               0D    384
     123     365       0       0       0       0       0       000010200D    385
     123       0       0       1       0                               0D    386
     508     366       0       0       0       0       0       000010000D    387
     508       0       0       3       1                               0D    388
     510     369       0       0       0       0       0       000010001D    389
     510       0       0       1       1                               0D    390
     116     370       0       0       0       0       0       000010000D    391
     116       0       0       1       0                               0D    392
     123     371       0       0       0       0       0       000010200D    393
     123       0       0       1       0                               0D    394
     190     372       0       0       0       0       0       000010000D    395
     190       0       0       1       1                               0D    396
     123     373       0       0       0       0       0       000010200D    397
     123       0       0       1       0                               0D    398
     508     374       0       0       0       0       0       000010000D    399
     508       0       0       3       1                               0D    400
     510     377       0       0       0       0       0       000010001D    401
     510       0       0       1       1                               0D    402
     514     378       0       0       0       0       0       000010000D    403
     514       0       0       3       1                               0D    404
     186     381       0       0       1       0       0       000000000D    405
     186       0    -407       1       0                               0D    406
     314     382       0       0       0       0       0       000000200D    407
     314       0       0       2       0                               0D    408
406,2,0,20H1401K - Bottom Cover;                                       1P      1
128,1,8,1,2,0,1,0,0,0,-172.501736895499D0,-172.501736895499D0,         3P      2
-172.028830491558D0,-172.028830491558D0,0.0D0,0.0D0,0.0D0,             3P      3
.159435827169682D0,.159435827169682D0,.318871654339364D0,              3P      4
.318871654339364D0,.478307481509046D0,.478307481509046D0,              3P      5
.637743308678728D0,.637743308678728D0,.637743308678728D0,1.0D0,        3P      6
1.0D0,.707106781186548D0,.707106781186548D0,1.0D0,1.0D0,               3P      7
.707106781186548D0,.707106781186548D0,1.0D0,1.0D0,                     3P      8
.707106781186548D0,.707106781186548D0,1.0D0,1.0D0,                     3P      9
.707106781186548D0,.707106781186548D0,1.0D0,1.0D0,-.9145D0,            3P     10
-.375000000000002D0,4.952D0,-.9145D0,-.375000000000002D0,5.0D0,        3P     11
-.9145D0,-.476500000000002D0,4.952D0,-.9145D0,                         3P     12
-.476500000000002D0,5.0D0,-.813D0,-.476500000000002D0,4.952D0,         3P     13
-.813D0,-.476500000000002D0,5.0D0,-.7115D0,-.476500000000002D0,        3P     14
4.952D0,-.7115D0,-.476500000000002D0,5.0D0,-.7115D0,                   3P     15
-.375000000000002D0,4.952D0,-.7115D0,-.375000000000002D0,5.0D0,        3P     16
-.7115D0,-.273500000000002D0,4.952D0,-.7115D0,                         3P     17
-.273500000000002D0,5.0D0,-.813D0,-.273500000000002D0,4.952D0,         3P     18
-.813D0,-.273500000000002D0,5.0D0,-.9145D0,-.273500000000002D0,        3P     19
4.952D0,-.9145D0,-.273500000000002D0,5.0D0,-.9145D0,                   3P     20
-.375000000000002D0,4.952D0,-.9145D0,-.375000000000002D0,5.0D0,        3P     21
-172.501736895499D0,-172.028830491558D0,0.0D0,                         3P     22
.637743308678728D0;                                                    3P     23
502,40,-.7115D0,-.375000000000002D0,5.0D0,-.7115D0,                    5P     24
-.375000000000002D0,4.952D0,-.9145D0,-.375000000000002D0,5.0D0,        5P     25
-.9145D0,-.375000000000002D0,4.952D0,-13.0855D0,                       5P     26
-.375000000000002D0,5.0D0,-13.0855D0,-.375000000000002D0,              5P     27
4.952D0,-13.2885D0,-.375000000000002D0,5.0D0,-13.2885D0,               5P     28
-.375000000000002D0,4.952D0,-.7115D0,-.375000000000002D0,-5.0D0,       5P     29
-.7115D0,-.375000000000002D0,-4.952D0,-.9145D0,                        5P     30
-.375000000000002D0,-5.0D0,-.9145D0,-.375000000000002D0,               5P     31
-4.952D0,-13.0855D0,-.375000000000002D0,-5.0D0,-13.0855D0,             5P     32
-.375000000000002D0,-4.952D0,-13.2885D0,-.375000000000002D0,           5P     33
-5.0D0,-13.2885D0,-.375000000000002D0,-4.952D0,-14.0D0,1.202D0,        5P     34
-4.952D0,-14.0D0,-1.625D0,-4.952D0,0.0D0,-1.625D0,-4.952D0,            5P     35
0.0D0,1.202D0,-4.952D0,-14.0D0,-1.625D0,-5.0D0,-14.0D0,1.202D0,        5P     36
-5.0D0,0.0D0,1.202D0,-5.0D0,0.0D0,-1.625D0,-5.0D0,-14.0D0,             5P     37
-1.625D0,5.0D0,-14.0D0,-1.625D0,4.952D0,0.0D0,-1.625D0,4.952D0,        5P     38
0.0D0,-1.625D0,5.0D0,-14.0D0,1.202D0,4.952D0,0.0D0,1.202D0,            5P     39
4.952D0,-14.0D0,1.577D0,4.577D0,0.0D0,1.577D0,4.577D0,-14.0D0,         5P     40
1.577D0,-4.577D0,0.0D0,1.577D0,-4.577D0,-14.0D0,1.625D0,               5P     41
-4.577D0,0.0D0,1.625D0,-4.577D0,-14.0D0,1.625D0,4.577D0,0.0D0,         5P     42
1.625D0,4.577D0,-14.0D0,1.202D0,5.0D0,0.0D0,1.202D0,5.0D0;             5P     43
110,-.7115D0,-.375000000000002D0,5.0D0,-.7115D0,                       7P     44
-.375000000000002D0,4.952D0;                                           7P     45
504,60,7,5,1,5,2,11,5,3,5,1,15,5,3,5,4,17,5,2,5,4,27,5,5,5,6,29,       9P     46
5,7,5,5,33,5,7,5,8,35,5,6,5,8,49,5,9,5,10,51,5,11,5,9,55,5,11,5,       9P     47
12,57,5,10,5,12,71,5,13,5,14,73,5,15,5,13,77,5,15,5,16,79,5,14,        9P     48
5,16,93,5,16,5,14,95,5,13,5,15,107,5,12,5,10,109,5,9,5,11,117,5,       9P     49
8,5,6,119,5,5,5,7,127,5,4,5,2,129,5,1,5,3,143,5,17,5,18,145,5,         9P     50
19,5,18,147,5,19,5,20,149,5,20,5,17,167,5,21,5,22,169,5,23,5,22,       9P     51
171,5,23,5,24,173,5,24,5,21,191,5,25,5,26,193,5,27,5,26,195,5,         9P     52
27,5,28,197,5,28,5,25,211,5,26,5,29,213,5,30,5,29,215,5,30,5,27,       9P     53
231,5,29,5,31,235,5,32,5,31,237,5,32,5,30,253,5,31,5,33,255,5,         9P     54
34,5,33,257,5,34,5,32,269,5,33,5,17,273,5,20,5,34,289,5,18,5,21,       9P     55
291,5,24,5,19,305,5,22,5,35,309,5,36,5,35,311,5,36,5,23,327,5,         9P     56
35,5,37,329,5,38,5,37,331,5,38,5,36,345,5,37,5,39,349,5,40,5,39,       9P     57
351,5,40,5,38,367,5,39,5,25,369,5,28,5,40;                             9P     58
100,0.0D0,0.0D0,0.0D0,-.1015D0,1.24301650113456D-17,.1015D0,          11P     59
-2.48603300226913D-17;                                                11P     60
124,1.0D0,0.0D0,0.0D0,-.813D0,0.0D0,-1.0D0,0.0D0,                     13P     61
-.375000000000002D0,0.0D0,0.0D0,-1.0D0,5.0D0;                         13P     62
110,-.9145D0,-.375000000000002D0,5.0D0,-.9145D0,                      15P     63
-.375000000000002D0,4.952D0;                                          15P     64
100,0.0D0,0.0D0,0.0D0,.1015D0,0.0D0,-.1015D0,                         17P     65
1.24301650113456D-17;                                                 17P     66
124,1.0D0,0.0D0,0.0D0,-.813D0,0.0D0,1.0D0,0.0D0,                      19P     67
-.375000000000002D0,0.0D0,0.0D0,1.0D0,4.952D0;                        19P     68
508,4,0,9,1,0,0,0,9,2,0,0,0,9,3,1,0,0,9,4,0,0;                        21P     69
510,3,1,1,21;                                                         23P     70
128,1,8,1,2,0,1,0,0,0,-172.501736895499D0,-172.501736895499D0,        25P     71
-172.028830491558D0,-172.028830491558D0,0.0D0,0.0D0,0.0D0,            25P     72
.159435827169682D0,.159435827169682D0,.318871654339364D0,             25P     73
.318871654339364D0,.478307481509046D0,.478307481509046D0,             25P     74
.637743308678728D0,.637743308678728D0,.637743308678728D0,1.0D0,       25P     75
1.0D0,.707106781186548D0,.707106781186548D0,1.0D0,1.0D0,              25P     76
.707106781186548D0,.707106781186548D0,1.0D0,1.0D0,                    25P     77
.707106781186548D0,.707106781186548D0,1.0D0,1.0D0,                    25P     78
.707106781186548D0,.707106781186548D0,1.0D0,1.0D0,-13.2885D0,         25P     79
-.375000000000002D0,4.952D0,-13.2885D0,-.375000000000002D0,           25P     80
5.0D0,-13.2885D0,-.476500000000002D0,4.952D0,-13.2885D0,              25P     81
-.476500000000002D0,5.0D0,-13.187D0,-.476500000000002D0,4.952D0,      25P     82
-13.187D0,-.476500000000002D0,5.0D0,-13.0855D0,                       25P     83
-.476500000000002D0,4.952D0,-13.0855D0,-.476500000000002D0,           25P     84
5.0D0,-13.0855D0,-.375000000000002D0,4.952D0,-13.0855D0,              25P     85
-.375000000000002D0,5.0D0,-13.0855D0,-.273500000000002D0,             25P     86
4.952D0,-13.0855D0,-.273500000000002D0,5.0D0,-13.187D0,               25P     87
-.273500000000002D0,4.952D0,-13.187D0,-.273500000000002D0,5.0D0,      25P     88
-13.2885D0,-.273500000000002D0,4.952D0,-13.2885D0,                    25P     89
-.273500000000002D0,5.0D0,-13.2885D0,-.375000000000002D0,             25P     90
4.952D0,-13.2885D0,-.375000000000002D0,5.0D0,                         25P     91
-172.501736895499D0,-172.028830491558D0,0.0D0,                        25P     92
.637743308678728D0;                                                   25P     93
110,-13.0855D0,-.375000000000002D0,5.0D0,-13.0855D0,                  27P     94
-.375000000000002D0,4.952D0;                                          27P     95
100,0.0D0,0.0D0,0.0D0,-.1015D0,1.24301650113456D-17,.1015D0,          29P     96
-2.48603300226913D-17;                                                29P     97
124,1.0D0,0.0D0,0.0D0,-13.187D0,0.0D0,-1.0D0,0.0D0,                   31P     98
-.375000000000002D0,0.0D0,0.0D0,-1.0D0,5.0D0;                         31P     99
110,-13.2885D0,-.375000000000002D0,5.0D0,-13.2885D0,                  33P    100
-.375000000000002D0,4.952D0;                                          33P    101
100,0.0D0,0.0D0,0.0D0,.1015D0,0.0D0,-.1015D0,                         35P    102
1.24301650113456D-17;                                                 35P    103
124,1.0D0,0.0D0,0.0D0,-13.187D0,0.0D0,1.0D0,0.0D0,                    37P    104
-.375000000000002D0,0.0D0,0.0D0,1.0D0,4.952D0;                        37P    105
508,4,0,9,5,0,0,0,9,6,0,0,0,9,7,1,0,0,9,8,0,0;                        39P    106
510,25,1,1,39;                                                        41P    107
120,47,45,0.0D0,6.28318530717959D0;                                   43P    108
110,-.7115D0,-.374999999999998D0,-5.0024D0,-.7115D0,                  45P    109
-.374999999999998D0,-4.9496D0;                                        45P    110
110,-.813D0,-.374999999999998D0,-5.0024D0,-.813D0,                    47P    111
-.374999999999998D0,-4.0024D0;                                        47P    112
110,-.7115D0,-.375000000000002D0,-5.0D0,-.7115D0,                     49P    113
-.375000000000002D0,-4.952D0;                                         49P    114
100,0.0D0,0.0D0,0.0D0,-.1015D0,1.24301650113456D-17,.1015D0,          51P    115
-2.48603300226913D-17;                                                51P    116
124,1.0D0,0.0D0,0.0D0,-.813D0,0.0D0,1.0D0,0.0D0,                      53P    117
-.375000000000002D0,0.0D0,0.0D0,1.0D0,-5.0D0;                         53P    118
110,-.9145D0,-.375000000000002D0,-5.0D0,-.9145D0,                     55P    119
-.375000000000002D0,-4.952D0;                                         55P    120
100,0.0D0,0.0D0,0.0D0,.1015D0,0.0D0,-.1015D0,                         57P    121
1.24301650113456D-17;                                                 57P    122
124,1.0D0,0.0D0,0.0D0,-.813D0,0.0D0,-1.0D0,0.0D0,                     59P    123
-.375000000000002D0,0.0D0,0.0D0,-1.0D0,-4.952D0;                      59P    124
508,4,0,9,9,0,0,0,9,10,0,0,0,9,11,1,0,0,9,12,0,0;                     61P    125
510,43,1,1,61;                                                        63P    126
120,69,67,0.0D0,6.28318530717959D0;                                   65P    127
110,-13.0855D0,-.374999999999998D0,-5.0024D0,-13.0855D0,              67P    128
-.374999999999998D0,-4.9496D0;                                        67P    129
110,-13.187D0,-.374999999999998D0,-5.0024D0,-13.187D0,                69P    130
-.374999999999998D0,-4.0024D0;                                        69P    131
110,-13.0855D0,-.375000000000002D0,-5.0D0,-13.0855D0,                 71P    132
-.375000000000002D0,-4.952D0;                                         71P    133
100,0.0D0,0.0D0,0.0D0,-.1015D0,1.24301650113456D-17,.1015D0,          73P    134
-2.48603300226913D-17;                                                73P    135
124,1.0D0,0.0D0,0.0D0,-13.187D0,0.0D0,1.0D0,0.0D0,                    75P    136
-.375000000000002D0,0.0D0,0.0D0,1.0D0,-5.0D0;                         75P    137
110,-13.2885D0,-.375000000000002D0,-5.0D0,-13.2885D0,                 77P    138
-.375000000000002D0,-4.952D0;                                         77P    139
100,0.0D0,0.0D0,0.0D0,.1015D0,0.0D0,-.1015D0,                         79P    140
1.24301650113456D-17;                                                 79P    141
124,1.0D0,0.0D0,0.0D0,-13.187D0,0.0D0,-1.0D0,0.0D0,                   81P    142
-.375000000000002D0,0.0D0,0.0D0,-1.0D0,-4.952D0;                      81P    143
508,4,0,9,13,0,0,0,9,14,0,0,0,9,15,1,0,0,9,16,0,0;                    83P    144
510,65,1,1,83;                                                        85P    145
120,91,89,0.0D0,6.28318530717959D0;                                   87P    146
110,-13.0855D0,-.374999999999998D0,-5.0024D0,-13.0855D0,              89P    147
-.374999999999998D0,-4.9496D0;                                        89P    148
110,-13.187D0,-.374999999999998D0,-5.0024D0,-13.187D0,                91P    149
-.374999999999998D0,-4.0024D0;                                        91P    150
100,0.0D0,0.0D0,0.0D0,-.1015D0,1.24301650113456D-17,.1015D0,          93P    151
-2.48603300226913D-17;                                                93P    152
100,0.0D0,0.0D0,0.0D0,.1015D0,0.0D0,-.1015D0,                         95P    153
1.24301650113456D-17;                                                 95P    154
508,4,0,9,13,1,0,0,9,17,0,0,0,9,15,0,0,0,9,18,0,0;                    97P    155
510,87,1,1,97;                                                        99P    156
120,105,103,0.0D0,6.28318530717959D0;                                101P    157
110,-.7115D0,-.374999999999998D0,-5.0024D0,-.7115D0,                 103P    158
-.374999999999998D0,-4.9496D0;                                       103P    159
110,-.813D0,-.374999999999998D0,-5.0024D0,-.813D0,                   105P    160
-.374999999999998D0,-4.0024D0;                                       105P    161
100,0.0D0,0.0D0,0.0D0,-.1015D0,1.24301650113456D-17,.1015D0,         107P    162
-2.48603300226913D-17;                                               107P    163
100,0.0D0,0.0D0,0.0D0,.1015D0,0.0D0,-.1015D0,                        109P    164
1.24301650113456D-17;                                                109P    165
508,4,0,9,9,1,0,0,9,19,0,0,0,9,11,0,0,0,9,20,0,0;                    111P    166
510,101,1,1,111;                                                     113P    167
128,1,8,1,2,0,1,0,0,0,-172.501736895499D0,-172.501736895499D0,       115P    168
-172.028830491558D0,-172.028830491558D0,0.0D0,0.0D0,0.0D0,           115P    169
.159435827169682D0,.159435827169682D0,.318871654339364D0,            115P    170
.318871654339364D0,.478307481509046D0,.478307481509046D0,            115P    171
.637743308678728D0,.637743308678728D0,.637743308678728D0,1.0D0,      115P    172
1.0D0,.707106781186548D0,.707106781186548D0,1.0D0,1.0D0,             115P    173
.707106781186548D0,.707106781186548D0,1.0D0,1.0D0,                   115P    174
.707106781186548D0,.707106781186548D0,1.0D0,1.0D0,                   115P    175
.707106781186548D0,.707106781186548D0,1.0D0,1.0D0,-13.2885D0,        115P    176
-.375000000000002D0,4.952D0,-13.2885D0,-.375000000000002D0,          115P    177
5.0D0,-13.2885D0,-.476500000000002D0,4.952D0,-13.2885D0,             115P    178
-.476500000000002D0,5.0D0,-13.187D0,-.476500000000002D0,4.952D0,     115P    179
-13.187D0,-.476500000000002D0,5.0D0,-13.0855D0,                      115P    180
-.476500000000002D0,4.952D0,-13.0855D0,-.476500000000002D0,          115P    181
5.0D0,-13.0855D0,-.375000000000002D0,4.952D0,-13.0855D0,             115P    182
-.375000000000002D0,5.0D0,-13.0855D0,-.273500000000002D0,            115P    183
4.952D0,-13.0855D0,-.273500000000002D0,5.0D0,-13.187D0,              115P    184
-.273500000000002D0,4.952D0,-13.187D0,-.273500000000002D0,5.0D0,     115P    185
-13.2885D0,-.273500000000002D0,4.952D0,-13.2885D0,                   115P    186
-.273500000000002D0,5.0D0,-13.2885D0,-.375000000000002D0,            115P    187
4.952D0,-13.2885D0,-.375000000000002D0,5.0D0,                        115P    188
-172.501736895499D0,-172.028830491558D0,0.0D0,                       115P    189
.637743308678728D0;                                                  115P    190
100,0.0D0,0.0D0,0.0D0,-.1015D0,1.24301650113456D-17,.1015D0,         117P    191
-2.48603300226913D-17;                                               117P    192
100,0.0D0,0.0D0,0.0D0,.1015D0,0.0D0,-.1015D0,                        119P    193
1.24301650113456D-17;                                                119P    194
508,4,0,9,5,1,0,0,9,21,0,0,0,9,7,0,0,0,9,22,0,0;                     121P    195
510,115,1,1,121;                                                     123P    196
128,1,8,1,2,0,1,0,0,0,-172.501736895499D0,-172.501736895499D0,       125P    197
-172.028830491558D0,-172.028830491558D0,0.0D0,0.0D0,0.0D0,           125P    198
.159435827169682D0,.159435827169682D0,.318871654339364D0,            125P    199
.318871654339364D0,.478307481509046D0,.478307481509046D0,            125P    200
.637743308678728D0,.637743308678728D0,.637743308678728D0,1.0D0,      125P    201
1.0D0,.707106781186548D0,.707106781186548D0,1.0D0,1.0D0,             125P    202
.707106781186548D0,.707106781186548D0,1.0D0,1.0D0,                   125P    203
.707106781186548D0,.707106781186548D0,1.0D0,1.0D0,                   125P    204
.707106781186548D0,.707106781186548D0,1.0D0,1.0D0,-.9145D0,          125P    205
-.375000000000002D0,4.952D0,-.9145D0,-.375000000000002D0,5.0D0,      125P    206
-.9145D0,-.476500000000002D0,4.952D0,-.9145D0,                       125P    207
-.476500000000002D0,5.0D0,-.813D0,-.476500000000002D0,4.952D0,       125P    208
-.813D0,-.476500000000002D0,5.0D0,-.7115D0,-.476500000000002D0,      125P    209
4.952D0,-.7115D0,-.476500000000002D0,5.0D0,-.7115D0,                 125P    210
-.375000000000002D0,4.952D0,-.7115D0,-.375000000000002D0,5.0D0,      125P    211
-.7115D0,-.273500000000002D0,4.952D0,-.7115D0,                       125P    212
-.273500000000002D0,5.0D0,-.813D0,-.273500000000002D0,4.952D0,       125P    213
-.813D0,-.273500000000002D0,5.0D0,-.9145D0,-.273500000000002D0,      125P    214
4.952D0,-.9145D0,-.273500000000002D0,5.0D0,-.9145D0,                 125P    215
-.375000000000002D0,4.952D0,-.9145D0,-.375000000000002D0,5.0D0,      125P    216
-172.501736895499D0,-172.028830491558D0,0.0D0,                       125P    217
.637743308678728D0;                                                  125P    218
100,0.0D0,0.0D0,0.0D0,-.1015D0,1.24301650113456D-17,.1015D0,         127P    219
-2.48603300226913D-17;                                               127P    220
100,0.0D0,0.0D0,0.0D0,.1015D0,0.0D0,-.1015D0,                        129P    221
1.24301650113456D-17;                                                129P    222
508,4,0,9,1,1,0,0,9,23,0,0,0,9,3,0,0,0,9,24,0,0;                     131P    223
510,125,1,1,131;                                                     133P    224
116,0.0D0,1.202D0,-4.952D0,0;                                        135P    225
123,0.0D0,0.0D0,1.0D0;                                               137P    226
190,135,137,141;                                                     139P    227
123,1.0D0,0.0D0,0.0D0;                                               141P    228
110,-14.0D0,1.202D0,-4.952D0,-14.0D0,-1.625D0,-4.952D0;              143P    229
110,0.0D0,-1.625D0,-4.952D0,-14.0D0,-1.625D0,-4.952D0;               145P    230
110,0.0D0,-1.625D0,-4.952D0,0.0D0,1.202D0,-4.952D0;                  147P    231
110,0.0D0,1.202D0,-4.952D0,-14.0D0,1.202D0,-4.952D0;                 149P    232
508,4,0,9,25,1,0,0,9,26,0,0,0,9,27,1,0,0,9,28,1,0;                   151P    233
508,2,0,9,17,1,0,0,9,16,1,0;                                         153P    234
508,2,0,9,19,1,0,0,9,12,1,0;                                         155P    235
510,139,3,1,151,153,155;                                             157P    236
116,0.0D0,-1.625D0,-5.0D0,0;                                         159P    237
123,0.0D0,0.0D0,-1.0D0;                                              161P    238
190,159,161,165;                                                     163P    239
123,-1.0D0,0.0D0,0.0D0;                                              165P    240
110,-14.0D0,-1.625D0,-5.0D0,-14.0D0,1.202D0,-5.0D0;                  167P    241
110,0.0D0,1.202D0,-5.0D0,-14.0D0,1.202D0,-5.0D0;                     169P    242
110,0.0D0,1.202D0,-5.0D0,0.0D0,-1.625D0,-5.0D0;                      171P    243
110,0.0D0,-1.625D0,-5.0D0,-14.0D0,-1.625D0,-5.0D0;                   173P    244
508,4,0,9,29,1,0,0,9,30,0,0,0,9,31,1,0,0,9,32,1,0;                   175P    245
508,2,0,9,18,1,0,0,9,14,1,0;                                         177P    246
508,2,0,9,20,1,0,0,9,10,1,0;                                         179P    247
510,163,3,1,175,177,179;                                             181P    248
116,0.0D0,-1.625D0,5.0D0,0;                                          183P    249
123,0.0D0,-1.0D0,0.0D0;                                              185P    250
190,183,185,189;                                                     187P    251
123,0.0D0,0.0D0,-1.0D0;                                              189P    252
110,-14.0D0,-1.625D0,5.0D0,-14.0D0,-1.625D0,4.952D0;                 191P    253
110,0.0D0,-1.625D0,4.952D0,-14.0D0,-1.625D0,4.952D0;                 193P    254
110,0.0D0,-1.625D0,4.952D0,0.0D0,-1.625D0,5.0D0;                     195P    255
110,0.0D0,-1.625D0,5.0D0,-14.0D0,-1.625D0,5.0D0;                     197P    256
508,4,0,9,33,1,0,0,9,34,0,0,0,9,35,1,0,0,9,36,1,0;                   199P    257
510,187,1,1,199;                                                     201P    258
116,0.0D0,-1.625D0,4.952D0,0;                                        203P    259
123,0.0D0,0.0D0,-1.0D0;                                              205P    260
190,203,205,209;                                                     207P    261
123,-1.0D0,0.0D0,0.0D0;                                              209P    262
110,-14.0D0,-1.625D0,4.952D0,-14.0D0,1.202D0,4.952D0;                211P    263
110,0.0D0,1.202D0,4.952D0,-14.0D0,1.202D0,4.952D0;                   213P    264
110,0.0D0,1.202D0,4.952D0,0.0D0,-1.625D0,4.952D0;                    215P    265
508,4,0,9,37,1,0,0,9,38,0,0,0,9,39,1,0,0,9,34,1,0;                   217P    266
508,2,0,9,21,1,0,0,9,8,1,0;                                          219P    267
508,2,0,9,23,1,0,0,9,4,1,0;                                          221P    268
510,207,3,1,217,219,221;                                             223P    269
120,229,227,0.0D0,6.28318530717959D0;                                225P    270
110,.7D0,1.577D0,4.577D0,-14.7D0,1.577D0,4.577D0;                    227P    271
110,.7D0,1.202D0,4.577D0,-.3D0,1.202D0,4.577D0;                      229P    272
100,0.0D0,0.0D0,0.0D0,-7.35020197227132D-16,-.375D0,.375D0,          231P    273
-9.18485099360515D-17;                                               231P    274
124,0.0D0,0.0D0,-1.0D0,-14.0D0,1.0D0,0.0D0,0.0D0,1.202D0,0.0D0,      233P    275
-1.0D0,0.0D0,4.577D0;                                                233P    276
110,0.0D0,1.577D0,4.577D0,-14.0D0,1.577D0,4.577D0;                   235P    277
100,0.0D0,0.0D0,0.0D0,.375D0,0.0D0,-4.76638233597308D-16,.375D0;     237P    278
124,0.0D0,0.0D0,1.0D0,0.0D0,1.0D0,0.0D0,0.0D0,1.202D0,0.0D0,         239P    279
1.0D0,0.0D0,4.577D0;                                                 239P    280
508,4,0,9,40,1,0,0,9,41,0,0,0,9,42,1,0,0,9,38,1,0;                   241P    281
510,225,1,1,241;                                                     243P    282
116,0.0D0,1.577D0,0.0D0,0;                                           245P    283
123,0.0D0,-1.0D0,0.0D0;                                              247P    284
190,245,247,251;                                                     249P    285
123,0.0D0,0.0D0,-1.0D0;                                              251P    286
110,-14.0D0,1.577D0,4.577D0,-14.0D0,1.577D0,-4.577D0;                253P    287
110,0.0D0,1.577D0,-4.577D0,-14.0D0,1.577D0,-4.577D0;                 255P    288
110,0.0D0,1.577D0,-4.577D0,0.0D0,1.577D0,4.577D0;                    257P    289
508,4,0,9,43,1,0,0,9,44,0,0,0,9,45,1,0,0,9,41,1,0;                   259P    290
510,249,1,1,259;                                                     261P    291
120,267,265,0.0D0,6.28318530717959D0;                                263P    292
110,.7D0,1.202D0,-4.952D0,-14.7D0,1.202D0,-4.952D0;                  265P    293
110,.7D0,1.202D0,-4.577D0,-.3D0,1.202D0,-4.577D0;                    267P    294
100,0.0D0,0.0D0,0.0D0,-6.88863824520386D-17,-.375D0,.375D0,          269P    295
2.41218397451495D-16;                                                269P    296
124,0.0D0,0.0D0,-1.0D0,-14.0D0,0.0D0,-1.0D0,0.0D0,1.202D0,           271P    297
-1.0D0,0.0D0,0.0D0,-4.577D0;                                         271P    298
100,0.0D0,0.0D0,0.0D0,.375D0,-4.24915417323598D-16,                  273P    299
1.14810637420064D-16,.375D0;                                         273P    300
124,0.0D0,0.0D0,1.0D0,0.0D0,0.0D0,1.0D0,0.0D0,1.202D0,-1.0D0,        275P    301
0.0D0,0.0D0,-4.577D0;                                                275P    302
508,4,0,9,46,1,0,0,9,28,0,0,0,9,47,1,0,0,9,44,1,0;                   277P    303
510,263,1,1,277;                                                     279P    304
116,0.0D0,-1.625D0,-4.952D0,0;                                       281P    305
123,0.0D0,-1.0D0,0.0D0;                                              283P    306
190,281,283,287;                                                     285P    307
123,0.0D0,0.0D0,-1.0D0;                                              287P    308
110,-14.0D0,-1.625D0,-4.952D0,-14.0D0,-1.625D0,-5.0D0;               289P    309
110,0.0D0,-1.625D0,-5.0D0,0.0D0,-1.625D0,-4.952D0;                   291P    310
508,4,0,9,48,1,0,0,9,32,0,0,0,9,49,1,0,0,9,26,1,0;                   293P    311
510,285,1,1,293;                                                     295P    312
116,0.0D0,1.202D0,-4.577D0,0;                                        297P    313
123,-1.0D0,0.0D0,0.0D0;                                              299P    314
192,297,299,.423D0,303;                                              301P    315
123,0.0D0,0.0D0,1.0D0;                                               303P    316
100,0.0D0,0.0D0,0.0D0,-.423D0,5.1802559603933D-17,                   305P    317
-7.77038394058995D-17,-.423D0;                                       305P    318
124,0.0D0,0.0D0,1.0D0,-14.0D0,0.0D0,-1.0D0,0.0D0,1.202D0,1.0D0,      307P    319
0.0D0,0.0D0,-4.577D0;                                                307P    320
110,0.0D0,1.625D0,-4.577D0,-14.0D0,1.625D0,-4.577D0;                 309P    321
100,0.0D0,0.0D0,0.0D0,2.59012798019665D-17,.423D0,-.423D0,           311P    322
5.1802559603933D-17;                                                 311P    323
124,0.0D0,0.0D0,-1.0D0,0.0D0,0.0D0,1.0D0,0.0D0,1.202D0,1.0D0,        313P    324
0.0D0,0.0D0,-4.577D0;                                                313P    325
508,4,0,9,50,1,0,0,9,51,0,0,0,9,52,1,0,0,9,30,1,0;                   315P    326
510,301,1,1,315;                                                     317P    327
116,0.0D0,1.625D0,3.49676543189026D-16,0;                            319P    328
123,0.0D0,1.0D0,0.0D0;                                               321P    329
190,319,321,325;                                                     323P    330
123,0.0D0,0.0D0,1.0D0;                                               325P    331
110,-14.0D0,1.625D0,-4.577D0,-14.0D0,1.625D0,4.577D0;                327P    332
110,0.0D0,1.625D0,4.577D0,-14.0D0,1.625D0,4.577D0;                   329P    333
110,0.0D0,1.625D0,4.577D0,0.0D0,1.625D0,-4.577D0;                    331P    334
508,4,0,9,53,1,0,0,9,54,0,0,0,9,55,1,0,0,9,51,1,0;                   333P    335
510,323,1,1,333;                                                     335P    336
116,0.0D0,1.202D0,4.577D0,0;                                         337P    337
123,-1.0D0,0.0D0,0.0D0;                                              339P    338
192,337,339,.423D0,343;                                              341P    339
123,0.0D0,-1.0D0,0.0D0;                                              343P    340
100,0.0D0,0.0D0,0.0D0,-.423D0,5.1802559603933D-17,                   345P    341
-7.77038394058995D-17,-.423D0;                                       345P    342
124,0.0D0,0.0D0,1.0D0,-14.0D0,-1.0D0,0.0D0,0.0D0,1.202D0,0.0D0,      347P    343
-1.0D0,0.0D0,4.577D0;                                                347P    344
110,0.0D0,1.202D0,5.0D0,-14.0D0,1.202D0,5.0D0;                       349P    345
100,0.0D0,0.0D0,0.0D0,2.13751015568543D-16,.423D0,-.423D0,           351P    346
5.1802559603933D-17;                                                 351P    347
124,0.0D0,0.0D0,-1.0D0,0.0D0,-1.0D0,0.0D0,0.0D0,1.202D0,0.0D0,       353P    348
1.0D0,0.0D0,4.577D0;                                                 353P    349
508,4,0,9,56,1,0,0,9,57,0,0,0,9,58,1,0,0,9,54,1,0;                   355P    350
510,341,1,1,355;                                                     357P    351
116,0.0D0,1.202D0,5.0D0,0;                                           359P    352
123,0.0D0,0.0D0,1.0D0;                                               361P    353
190,359,361,365;                                                     363P    354
123,1.0D0,0.0D0,0.0D0;                                               365P    355
110,-14.0D0,1.202D0,5.0D0,-14.0D0,-1.625D0,5.0D0;                    367P    356
110,0.0D0,-1.625D0,5.0D0,0.0D0,1.202D0,5.0D0;                        369P    357
508,4,0,9,59,1,0,0,9,36,0,0,0,9,60,1,0,0,9,57,1,0;                   371P    358
508,2,0,9,22,1,0,0,9,6,1,0;                                          373P    359
508,2,0,9,24,1,0,0,9,2,1,0;                                          375P    360
510,363,3,1,371,373,375;                                             377P    361
116,0.0D0,.943614699268477D0,1.52983487645199D-16,0;                 379P    362
123,1.0D0,0.0D0,0.0D0;                                               381P    363
190,379,381,385;                                                     383P    364
123,0.0D0,0.0D0,-1.0D0;                                              385P    365
508,12,0,9,60,0,0,0,9,35,0,0,0,9,39,0,0,0,9,42,0,0,0,9,45,0,0,0,     387P    366
9,47,0,0,0,9,27,0,0,0,9,49,0,0,0,9,31,0,0,0,9,52,0,0,0,9,55,0,0,     387P    367
0,9,58,0,0;                                                          387P    368
510,383,1,1,387;                                                     389P    369
116,-14.0D0,.943614699268476D0,1.36592399683213D-17,0;               391P    370
123,-1.0D0,0.0D0,0.0D0;                                              393P    371
190,391,393,397;                                                     395P    372
123,0.0D0,0.0D0,1.0D0;                                               397P    373
508,12,0,9,33,0,0,0,9,59,0,0,0,9,56,0,0,0,9,53,0,0,0,9,50,0,0,0,     399P    374
9,29,0,0,0,9,48,0,0,0,9,25,0,0,0,9,46,0,0,0,9,43,0,0,0,9,40,0,0,     399P    375
0,9,37,0,0;                                                          399P    376
510,395,1,1,399;                                                     401P    377
514,22,23,1,41,1,63,1,85,1,99,1,113,1,123,1,133,1,157,1,181,1,       403P    378
201,1,223,1,243,1,261,1,279,1,295,1,317,1,335,1,357,1,377,1,389,     403P    379
1,401,1;                                                             403P    380
186,403,1,0;                                                         405P    381
314,75.2941012382507D0,75.2941012382507D0,75.2941012382507D0,7HD     407P    382
efault;                                                              407P    383
S      1G      4D    408P    383                                        T      1
