                                                                        S      1
,,15H1401K - Bracket,27HNo Iges File Name specified,23HAutoDesk InventorG      1
 R12.0,37HAutoDesk Inventor Iges Exporter R12.0,32,38,6,99,15,15H1401K -G      2
 Bracket,1.0D0,1,2HIN,1,.08D0,15H20071024.082624,3.93700787401575D-4,   G      3
10000.0D0,,,11,0,,;                                                     G      4
     406       1       0       0       1       0       0       000000000D      1
     406       0       0       1       3                               0D      2
     116       2       0       0       0       0       0       000010000D      3
     116       0       0       1       0                               0D      4
     123       3       0       0       0       0       0       000010200D      5
     123       0       0       1       0                               0D      6
     190       4       0       0       0       0       0       000010000D      7
     190       0       0       1       1                               0D      8
     123       5       0       0       0       0       0       000010200D      9
     123       0       0       1       0                               0D     10
     502       6       0       0       0       0       0       000010000D     11
     502       0       0      11       1                               0D     12
     100      17       0       0       0       0      15       000010000D     13
     100       0       0       2       0                               0D     14
     124      19       0       0       0       0       0       000000000D     15
     124       0       0       2       0                               0D     16
     504      21       0       0       0       0       0       000010001D     17
     504       0       0       6       1                               0D     18
     110      27       0       0       0       0       0       000010000D     19
     110       0       0       1       0                               0D     20
     110      28       0       0       0       0       0       000010000D     21
     110       0       0       1       0                               0D     22
     110      29       0       0       0       0       0       000010000D     23
     110       0       0       2       0                               0D     24
     100      31       0       0       0       0      27       000010000D     25
     100       0       0       2       0                               0D     26
     124      33       0       0       0       0       0       000000000D     27
     124       0       0       2       0                               0D     28
     110      35       0       0       0       0       0       000010000D     29
     110       0       0       2       0                               0D     30
     110      37       0       0       0       0       0       000010000D     31
     110       0       0       2       0                               0D     32
     110      39       0       0       0       0       0       000010000D     33
     110       0       0       2       0                               0D     34
     508      41       0       0       0       0       0       000010000D     35
     508       0       0       2       1                               0D     36
     510      43       0       0       0       0       0       000010001D     37
     510       0       0       1       1                               0D     38
     116      44       0       0       0       0       0       000010000D     39
     116       0       0       1       0                               0D     40
     123      45       0       0       0       0       0       000010200D     41
     123       0       0       1       0                               0D     42
     190      46       0       0       0       0       0       000010000D     43
     190       0       0       1       1                               0D     44
     123      47       0       0       0       0       0       000010200D     45
     123       0       0       1       0                               0D     46
     110      48       0       0       0       0       0       000010000D     47
     110       0       0       1       0                               0D     48
     110      49       0       0       0       0       0       000010000D     49
     110       0       0       2       0                               0D     50
     110      51       0       0       0       0       0       000010000D     51
     110       0       0       1       0                               0D     52
     508      52       0       0       0       0       0       000010000D     53
     508       0       0       1       1                               0D     54
     510      53       0       0       0       0       0       000010001D     55
     510       0       0       1       1                               0D     56
     116      54       0       0       0       0       0       000010000D     57
     116       0       0       1       0                               0D     58
     123      55       0       0       0       0       0       000010200D     59
     123       0       0       1       0                               0D     60
     190      56       0       0       0       0       0       000010000D     61
     190       0       0       1       1                               0D     62
     123      57       0       0       0       0       0       000010200D     63
     123       0       0       1       0                               0D     64
     110      58       0       0       0       0       0       000010000D     65
     110       0       0       2       0                               0D     66
     110      60       0       0       0       0       0       000010000D     67
     110       0       0       2       0                               0D     68
     508      62       0       0       0       0       0       000010000D     69
     508       0       0       1       1                               0D     70
     510      63       0       0       0       0       0       000010001D     71
     510       0       0       1       1                               0D     72
     120      64       0       0       0       0       0       000010000D     73
     120       0       0       1       0                               0D     74
     110      65       0       0       0       0       0       000010000D     75
     110       0       0       1       0                               0D     76
     110      66       0       0       0       0       0       001010000D     77
     110       0       0       1       0                               0D     78
     100      67       0       0       0       0      81       000010000D     79
     100       0       0       2       0                               0D     80
     124      69       0       0       0       0       0       000000000D     81
     124       0       0       2       0                               0D     82
     110      71       0       0       0       0       0       000010000D     83
     110       0       0       2       0                               0D     84
     508      73       0       0       0       0       0       000010000D     85
     508       0       0       1       1                               0D     86
     510      74       0       0       0       0       0       000010001D     87
     510       0       0       1       1                               0D     88
     116      75       0       0       0       0       0       000010000D     89
     116       0       0       1       0                               0D     90
     123      76       0       0       0       0       0       000010200D     91
     123       0       0       1       0                               0D     92
     190      77       0       0       0       0       0       000010000D     93
     190       0       0       1       1                               0D     94
     123      78       0       0       0       0       0       000010200D     95
     123       0       0       1       0                               0D     96
     110      79       0       0       0       0       0       000010000D     97
     110       0       0       2       0                               0D     98
     110      81       0       0       0       0       0       000010000D     99
     110       0       0       2       0                               0D    100
     508      83       0       0       0       0       0       000010000D    101
     508       0       0       1       1                               0D    102
     510      84       0       0       0       0       0       000010001D    103
     510       0       0       1       1                               0D    104
     116      85       0       0       0       0       0       000010000D    105
     116       0       0       1       0                               0D    106
     123      86       0       0       0       0       0       000010200D    107
     123       0       0       1       0                               0D    108
     190      87       0       0       0       0       0       000010000D    109
     190       0       0       1       1                               0D    110
     123      88       0       0       0       0       0       000010200D    111
     123       0       0       1       0                               0D    112
     110      89       0       0       0       0       0       000010000D    113
     110       0       0       2       0                               0D    114
     110      91       0       0       0       0       0       000010000D    115
     110       0       0       2       0                               0D    116
     508      93       0       0       0       0       0       000010000D    117
     508       0       0       1       1                               0D    118
     510      94       0       0       0       0       0       000010001D    119
     510       0       0       1       1                               0D    120
     116      95       0       0       0       0       0       000010000D    121
     116       0       0       1       0                               0D    122
     123      96       0       0       0       0       0       000010200D    123
     123       0       0       1       0                               0D    124
     190      97       0       0       0       0       0       000010000D    125
     190       0       0       1       1                               0D    126
     123      98       0       0       0       0       0       000010200D    127
     123       0       0       1       0                               0D    128
     110      99       0       0       0       0       0       000010000D    129
     110       0       0       2       0                               0D    130
     110     101       0       0       0       0       0       000010000D    131
     110       0       0       2       0                               0D    132
     508     103       0       0       0       0       0       000010000D    133
     508       0       0       1       1                               0D    134
     510     104       0       0       0       0       0       000010001D    135
     510       0       0       1       1                               0D    136
     116     105       0       0       0       0       0       000010000D    137
     116       0       0       1       0                               0D    138
     123     106       0       0       0       0       0       000010200D    139
     123       0       0       1       0                               0D    140
     192     107       0       0       0       0       0       000010000D    141
     192       0       0       1       1                               0D    142
     123     108       0       0       0       0       0       000010200D    143
     123       0       0       1       0                               0D    144
     100     109       0       0       0       0     147       000010000D    145
     100       0       0       2       0                               0D    146
     124     111       0       0       0       0       0       000000000D    147
     124       0       0       2       0                               0D    148
     110     113       0       0       0       0       0       000010000D    149
     110       0       0       2       0                               0D    150
     508     115       0       0       0       0       0       000010000D    151
     508       0       0       1       1                               0D    152
     510     116       0       0       0       0       0       000010001D    153
     510       0       0       1       1                               0D    154
     116     117       0       0       0       0       0       000010000D    155
     116       0       0       1       0                               0D    156
     123     118       0       0       0       0       0       000010200D    157
     123       0       0       1       0                               0D    158
     190     119       0       0       0       0       0       000010000D    159
     190       0       0       1       1                               0D    160
     123     120       0       0       0       0       0       000010200D    161
     123       0       0       1       0                               0D    162
     110     121       0       0       0       0       0       000010000D    163
     110       0       0       1       0                               0D    164
     508     122       0       0       0       0       0       000010000D    165
     508       0       0       1       1                               0D    166
     510     123       0       0       0       0       0       000010001D    167
     510       0       0       1       1                               0D    168
     116     124       0       0       0       0       0       000010000D    169
     116       0       0       1       0                               0D    170
     123     125       0       0       0       0       0       000010200D    171
     123       0       0       1       0                               0D    172
     190     126       0       0       0       0       0       000010000D    173
     190       0       0       1       1                               0D    174
     123     127       0       0       0       0       0       000010200D    175
     123       0       0       1       0                               0D    176
     508     128       0       0       0       0       0       000010000D    177
     508       0       0       2       1                               0D    178
     510     130       0       0       0       0       0       000010001D    179
     510       0       0       1       1                               0D    180
     514     131       0       0       0       0       0       000010000D    181
     514       0       0       1       1                               0D    182
     186     132       0       0       1       0       0       000000000D    183
     186       0    -185       1       0                               0D    184
     314     133       0       0       0       0       0       000000200D    185
     314       0       0       2       0                               0D    186
406,2,0,15H1401K - Bracket;                                            1P      1
116,9.05964705842002D-2,9.05964705842002D-2,-3.5D0,0;                  3P      2
123,0.0D0,0.0D0,-1.0D0;                                                5P      3
190,3,5,9;                                                             7P      4
123,-1.0D0,0.0D0,0.0D0;                                                9P      5
502,16,-.054D0,-3.30654635769785D-18,-3.5D0,                          11P      6
9.91963907309356D-18,-.054D0,-3.5D0,-.054D0,.446D0,-3.5D0,            11P      7
-1.80000000000001D-2,.446D0,-3.5D0,-.018D0,                           11P      8
-5.51091059616309D-18,-3.5D0,8.81745695386094D-18,-.018D0,            11P      9
-3.5D0,.446D0,-1.79999999999998D-2,-3.5D0,.446D0,                     11P     10
-5.39999999999999D-2,-3.5D0,-.054D0,.446D0,3.5D0,                     11P     11
-1.80000000000001D-2,.446D0,3.5D0,-.018D0,-5.51091059616309D-18,      11P     12
3.5D0,8.81745695386094D-18,-.018D0,3.5D0,.446D0,                      11P     13
-1.79999999999998D-2,3.5D0,.446D0,-5.39999999999999D-2,3.5D0,         11P     14
9.91963907309356D-18,-.054D0,3.5D0,-.054D0,                           11P     15
-3.30654635769785D-18,3.5D0;                                          11P     16
100,0.0D0,0.0D0,0.0D0,.054D0,3.30654635769785D-18,                    13P     17
-8.68386230825384D-18,.054D0;                                         13P     18
124,-1.0D0,0.0D0,0.0D0,0.0D0,0.0D0,-1.0D0,0.0D0,0.0D0,0.0D0,          15P     19
0.0D0,1.0D0,-3.5D0;                                                   15P     20
504,24,13,11,1,11,2,19,11,3,11,1,21,11,4,11,3,23,11,5,11,4,25,        17P     21
11,6,11,5,29,11,7,11,6,31,11,8,11,7,33,11,2,11,8,47,11,9,11,10,       17P     22
49,11,4,11,10,51,11,9,11,3,65,11,10,11,11,67,11,5,11,11,79,11,        17P     23
11,11,12,83,11,6,11,12,97,11,12,11,13,99,11,7,11,13,113,11,13,        17P     24
11,14,115,11,8,11,14,129,11,14,11,15,131,11,2,11,15,145,11,15,        17P     25
11,16,149,11,1,11,16,163,11,16,11,9;                                  17P     26
110,-.054D0,.446D0,-3.5D0,-.054D0,-3.30654635769785D-18,-3.5D0;       19P     27
110,-1.80000000000001D-2,.446D0,-3.5D0,-.054D0,.446D0,-3.5D0;         21P     28
110,-.018D0,-5.51091059616309D-18,-3.5D0,-1.80000000000001D-2,        23P     29
.446D0,-3.5D0;                                                        23P     30
100,0.0D0,0.0D0,0.0D0,9.09578789653375D-18,.018D0,-.018D0,            25P     31
2.20436423846524D-18;                                                 25P     32
124,1.0D0,0.0D0,0.0D0,0.0D0,0.0D0,-1.0D0,0.0D0,0.0D0,0.0D0,           27P     33
0.0D0,-1.0D0,-3.5D0;                                                  27P     34
110,.446D0,-1.79999999999998D-2,-3.5D0,8.81745695386094D-18,          29P     35
-.018D0,-3.5D0;                                                       29P     36
110,.446D0,-5.39999999999999D-2,-3.5D0,.446D0,                        31P     37
-1.79999999999998D-2,-3.5D0;                                          31P     38
110,9.91963907309356D-18,-.054D0,-3.5D0,.446D0,                       33P     39
-5.39999999999999D-2,-3.5D0;                                          33P     40
508,8,0,17,1,0,0,0,17,2,0,0,0,17,3,0,0,0,17,4,0,0,0,17,5,0,0,0,       35P     41
17,6,0,0,0,17,7,0,0,0,17,8,0,0;                                       35P     42
510,7,1,1,35;                                                         37P     43
116,-.054D0,.446D0,0.0D0,0;                                           39P     44
123,0.0D0,1.0D0,0.0D0;                                                41P     45
190,39,41,45;                                                         43P     46
123,0.0D0,0.0D0,1.0D0;                                                45P     47
110,-.054D0,.446D0,3.5D0,-1.80000000000001D-2,.446D0,3.5D0;           47P     48
110,-1.80000000000001D-2,.446D0,-3.5D0,-1.80000000000001D-2,          49P     49
.446D0,3.5D0;                                                         49P     50
110,-.054D0,.446D0,3.5D0,-.054D0,.446D0,-3.5D0;                       51P     51
508,4,0,17,9,1,0,0,17,10,0,0,0,17,3,1,0,0,17,11,0,0;                  53P     52
510,43,1,1,53;                                                        55P     53
116,-1.80000000000001D-2,.446D0,0.0D0,0;                              57P     54
123,1.0D0,0.0D0,0.0D0;                                                59P     55
190,57,59,63;                                                         61P     56
123,0.0D0,0.0D0,-1.0D0;                                               63P     57
110,-1.80000000000001D-2,.446D0,3.5D0,-.018D0,                        65P     58
-5.51091059616309D-18,3.5D0;                                          65P     59
110,-.018D0,-5.51091059616309D-18,-3.5D0,-.018D0,                     67P     60
-5.51091059616309D-18,3.5D0;                                          67P     61
508,4,0,17,12,1,0,0,17,13,0,0,0,17,4,1,0,0,17,10,1,0;                 69P     62
510,61,1,1,69;                                                        71P     63
120,77,75,0.0D0,6.28318530717959D0;                                   73P     64
110,.018D0,0.0D0,-3.85D0,.018D0,0.0D0,3.85D0;                         75P     65
110,0.0D0,0.0D0,-3.85D0,0.0D0,0.0D0,-2.85D0;                          77P     66
100,0.0D0,0.0D0,0.0D0,-.018D0,2.20436423846524D-18,                   79P     67
-3.30654635769785D-18,-.018D0;                                        79P     68
124,1.0D0,0.0D0,0.0D0,0.0D0,0.0D0,1.0D0,0.0D0,0.0D0,0.0D0,0.0D0,      81P     69
1.0D0,3.5D0;                                                          81P     70
110,8.81745695386094D-18,-.018D0,-3.5D0,8.81745695386094D-18,         83P     71
-.018D0,3.5D0;                                                        83P     72
508,4,0,17,14,1,0,0,17,15,0,0,0,17,5,1,0,0,17,13,1,0;                 85P     73
510,73,1,1,85;                                                        87P     74
116,8.81745695386094D-18,-.018D0,0.0D0,0;                             89P     75
123,0.0D0,1.0D0,0.0D0;                                                91P     76
190,89,91,95;                                                         93P     77
123,0.0D0,0.0D0,1.0D0;                                                95P     78
110,8.81745695386094D-18,-.018D0,3.5D0,.446D0,                        97P     79
-1.79999999999998D-2,3.5D0;                                           97P     80
110,.446D0,-1.79999999999998D-2,-3.5D0,.446D0,                        99P     81
-1.79999999999998D-2,3.5D0;                                           99P     82
508,4,0,17,16,1,0,0,17,17,0,0,0,17,6,1,0,0,17,15,1,0;                101P     83
510,93,1,1,101;                                                      103P     84
116,.446D0,-1.79999999999998D-2,0.0D0,0;                             105P     85
123,1.0D0,0.0D0,0.0D0;                                               107P     86
190,105,107,111;                                                     109P     87
123,0.0D0,0.0D0,-1.0D0;                                              111P     88
110,.446D0,-1.79999999999998D-2,3.5D0,.446D0,                        113P     89
-5.39999999999999D-2,3.5D0;                                          113P     90
110,.446D0,-5.39999999999999D-2,-3.5D0,.446D0,                       115P     91
-5.39999999999999D-2,3.5D0;                                          115P     92
508,4,0,17,18,1,0,0,17,19,0,0,0,17,7,1,0,0,17,17,1,0;                117P     93
510,109,1,1,117;                                                     119P     94
116,.446D0,-5.39999999999999D-2,0.0D0,0;                             121P     95
123,0.0D0,-1.0D0,0.0D0;                                              123P     96
190,121,123,127;                                                     125P     97
123,0.0D0,0.0D0,-1.0D0;                                              127P     98
110,.446D0,-5.39999999999999D-2,3.5D0,9.91963907309356D-18,          129P     99
-.054D0,3.5D0;                                                       129P    100
110,9.91963907309356D-18,-.054D0,-3.5D0,9.91963907309356D-18,        131P    101
-.054D0,3.5D0;                                                       131P    102
508,4,0,17,20,1,0,0,17,21,0,0,0,17,8,1,0,0,17,19,1,0;                133P    103
510,125,1,1,133;                                                     135P    104
116,0.0D0,0.0D0,0.0D0,0;                                             137P    105
123,0.0D0,0.0D0,1.0D0;                                               139P    106
192,137,139,.054D0,143;                                              141P    107
123,-1.0D0,0.0D0,0.0D0;                                              143P    108
100,0.0D0,0.0D0,0.0D0,-9.91963907309356D-18,-.054D0,.054D0,          145P    109
-1.32261854307914D-17;                                               145P    110
124,-1.0D0,0.0D0,0.0D0,0.0D0,0.0D0,1.0D0,0.0D0,0.0D0,0.0D0,          147P    111
0.0D0,-1.0D0,3.5D0;                                                  147P    112
110,-.054D0,-3.30654635769785D-18,-3.5D0,-.054D0,                    149P    113
-3.30654635769785D-18,3.5D0;                                         149P    114
508,4,0,17,22,1,0,0,17,23,0,0,0,17,1,1,0,0,17,21,1,0;                151P    115
510,141,1,1,151;                                                     153P    116
116,-.054D0,-3.30654635769785D-18,0.0D0,0;                           155P    117
123,-1.0D0,0.0D0,0.0D0;                                              157P    118
190,155,157,161;                                                     159P    119
123,0.0D0,0.0D0,1.0D0;                                               161P    120
110,-.054D0,-3.30654635769785D-18,3.5D0,-.054D0,.446D0,3.5D0;        163P    121
508,4,0,17,24,1,0,0,17,11,1,0,0,17,2,1,0,0,17,23,1,0;                165P    122
510,159,1,1,165;                                                     167P    123
116,9.05964705842002D-2,9.05964705842002D-2,3.5D0,0;                 169P    124
123,0.0D0,0.0D0,1.0D0;                                               171P    125
190,169,171,175;                                                     173P    126
123,1.0D0,0.0D0,0.0D0;                                               175P    127
508,8,0,17,9,0,0,0,17,24,0,0,0,17,22,0,0,0,17,20,0,0,0,17,18,0,      177P    128
0,0,17,16,0,0,0,17,14,0,0,0,17,12,0,0;                               177P    129
510,173,1,1,177;                                                     179P    130
514,10,37,1,55,1,71,1,87,1,103,1,119,1,135,1,153,1,167,1,179,1;      181P    131
186,181,1,0;                                                         183P    132
314,75.2941012382507D0,75.2941012382507D0,75.2941012382507D0,7HD     185P    133
efault;                                                              185P    134
S      1G      4D    186P    134                                        T      1
